<svg xmlns="http://www.w3.org/2000/svg" viewBox="0 0 64 64"><g class="color000000 svgShape" data-name="10-Hotel"><path fill="#ea4335" d="M32,2A24.0275,24.0275,0,0,0,8,26C8,44.294,30.44971,61.09766,31.40576,61.8042a.99964.99964,0,0,0,1.18848,0C33.55029,61.09766,56,44.294,56,26A24.0275,24.0275,0,0,0,32,2Z" class="colorfc6067 svgShape"/><circle cx="32" cy="26" r="18" fill="#e7eaef" class="colore7eaef svgShape"/><path fill="#34a853" d="M43,33a.99974.99974,0,0,1-1-1V29a1,1,0,0,1,2,0v3A.99974.99974,0,0,1,43,33Z" class="color565d69 svgShape"/><path fill="#fbbc05" d="M25,20H21v6h6a1,1,0,0,0,1-1V23A3,3,0,0,0,25,20Z" class="colorfcb860 svgShape"/><path fill="#4285f4" d="M41,24H21v6H44V27A3,3,0,0,0,41,24Z" class="color68b1fc svgShape"/><path fill="#34a853" d="M21,33a.99974.99974,0,0,1-1-1V18a1,1,0,0,1,2,0V32A.99974.99974,0,0,1,21,33Z" class="color565d69 svgShape"/></g></svg>