<svg xmlns="http://www.w3.org/2000/svg" enable-background="new 0 0 130 130" viewBox="0 0 130 130"><path fill="#fe9526" d="M73.0820236,1.1672542l-0.9780655-0.5683911c0.6307297-0.364153,1.2618561-0.500035,1.8937454-0.2401336
						l0.9780655,0.5683978C74.3438797,0.6672192,73.7127609,0.8031012,73.0820236,1.1672542z" class="colorf3516f svgShape"/><polygon fill="#fe9526" points="66.042 13.488 65.064 12.92 65.043 5.529 66.021 6.097" class="colorf3516f svgShape"/><path fill="#fe9526" d="M66.0210648,6.0971246l-0.9780731-0.5683894
						c0.6320801,0.2613592,1.2632141,0.1263013,1.8937454-0.2377348c0.8614655-0.4973674,1.7219543-1.4219365,2.5836105-2.3472681
						c0.8601379-0.9226134,1.7214355-1.8469989,2.5836105-2.3448691l0.9780655,0.5683911
						c-0.862175,0.4978702-1.723465,1.422256-2.5836029,2.3448691c-0.8616562,0.9253318-1.7221527,1.8499005-2.5836182,2.3472683
						C67.2842789,6.2234278,66.6531448,6.3584852,66.0210648,6.0971246z" class="colorf3516f svgShape"/><path fill="#167ffc" d="M73.0820236,1.1672542c0.6307373-0.364153,1.2618561-0.500035,1.8937531-0.2401335l0.0209503,7.3913674
						c-0.6317978-0.2598619-1.263092-0.1238813-1.8937302,0.2402182c-0.8622665,0.4978304-1.7233963,1.4221191-2.5836258,2.3447838
						c-0.8615646,0.9252796-1.722229,1.8500395-2.5836029,2.347353c-0.6306152,0.36409-1.2615814,0.4991417-1.8937454,0.237648
						l-0.0209579-7.3913665c0.6320801,0.2613606,1.2632141,0.1263032,1.8937378-0.2377329
						c0.8614655-0.4973679,1.721962-1.4219365,2.5836182-2.3472683C71.3585587,2.5895102,72.2198486,1.6651244,73.0820236,1.1672542
						z" class="colord63a63 svgShape"/><polygon fill="#9b9ba5" points="42.225 129.776 9.729 110.891 17.782 68.348 50.277 87.232" class="color9b9ea5 svgShape"/><polygon fill="#a1a1aa" points="50.277 87.232 17.782 68.348 84.668 35.71 112.003 51.595" class="colora1a3aa svgShape"/><polygon fill="#ababb7" points="112.003 51.595 120.271 84.716 42.225 129.776 50.277 87.232" class="colorabaeb7 svgShape"/><polygon fill="#bbbbc6" points="111.604 50 84.269 34.115 86.7 32.711 114.035 48.597" class="colorbbbec6 svgShape"/><polygon fill="#6d6d72" points="50.665 85.183 18.169 66.299 84.269 34.115 111.604 50" class="color6d6f72 svgShape"/><polygon fill="#8d8d96" points="114.035 48.597 114.402 50.21 112.002 51.595 50.277 87.232 47.878 88.618 48.403 86.489 50.665 85.183 111.604 50" class="color8d9096 svgShape"/><polygon fill="#ababb7" points="47.878 88.618 15.382 69.733 15.907 67.605 48.403 86.489" class="colorabaeb7 svgShape"/><polygon fill="#bbbbc6" points="48.403 86.489 15.907 67.605 18.169 66.299 50.665 85.183" class="colorbbbec6 svgShape"/><polygon fill="#a1a1aa" points="51.576 80.374 19.08 61.489 83.335 30.37 110.669 46.256" class="colora1a3aa svgShape"/><polygon fill="#9b9ba5" points="50.665 85.183 18.169 66.299 19.08 61.489 51.576 80.374" class="color9b9ea5 svgShape"/><polygon fill="#ababb7" points="110.669 46.256 111.604 50 50.665 85.183 51.576 80.374" class="colorabaeb7 svgShape"/><polygon fill="#bbbbc6" points="110.271 44.66 82.936 28.775 85.578 27.25 112.913 43.135" class="colorbbbec6 svgShape"/><polygon fill="#6d6d72" points="51.963 78.324 19.468 59.44 82.936 28.775 110.271 44.66" class="color6d6f72 svgShape"/><polygon fill="#9b9ba5" points="51.963 78.325 19.468 59.44 21.911 46.53 54.407 65.414" class="color9b9ea5 svgShape"/><polygon fill="#8d8d96" points="112.913 43.135 113.278 44.749 110.669 46.256 51.575 80.374 48.967 81.879 49.492 79.751 51.963 78.324 110.271 44.66" class="color8d9096 svgShape"/><polygon fill="#ababb7" points="48.967 81.879 16.472 62.995 16.996 60.867 49.492 79.751" class="colorabaeb7 svgShape"/><polygon fill="#bbbbc6" points="49.492 79.751 16.996 60.867 19.468 59.44 51.963 78.324" class="colorbbbec6 svgShape"/><polygon fill="#bbbbc6" points="54.407 65.414 21.911 46.53 75.266 15.725 107.762 34.61" class="colorbbbec6 svgShape"/><polygon fill="#ababb7" points="107.762 34.61 110.271 44.66 51.963 78.325 54.407 65.414" class="colorabaeb7 svgShape"/><polygon fill="#bbbbc6" points="96.155 98.67 81.093 89.906 94.719 82.073" class="colorbbbec6 svgShape"/><polygon fill="#9b9ba5" points="98.997 100.322 96.155 98.67 94.447 78.937 97.29 80.589" class="color9b9ea5 svgShape"/><polygon fill="#9b9ba5" points="62.495 121.397 59.652 119.745 64.539 82.985 67.382 84.637" class="color9b9ea5 svgShape"/><polygon fill="#bbbbc6" points="67.382 84.637 64.539 82.985 101.92 61.403 104.763 63.055" class="colorbbbec6 svgShape"/><polygon fill="#404043" points="91.447 84.072 91.652 91.461 87.855 89.268 87.65 81.879" class="color434240 svgShape"/><polygon fill="#8d8d96" points="104.763 63.055 108.66 94.743 98.997 100.322 97.29 80.589 74.469 93.765 72.157 115.818 62.495 121.397 67.382 84.637" class="color8d9096 svgShape"/><polygon fill="#fff" points="96.162 98.674 72.524 112.315 74.469 93.764 81.093 89.906" class="colorffffff svgShape"/><polygon fill="#ababb7" points="21.059 90.702 23.593 77.717 22.478 77.073 19.696 91.341 21.059 90.702" class="colorabaeb7 svgShape"/><polygon fill="#bbbbc6" points="21.059 90.702 19.696 91.341 19.696 91.341 26.828 95.458 27.077 94.177" class="colorbbbec6 svgShape"/><polygon fill="#404043" points="23.593 77.717 21.059 90.702 27.077 94.177 29.609 81.191" class="color434240 svgShape"/><polygon fill="#ababb7" points="21.787 86.952 23.593 77.717 22.478 77.073 20.423 87.59 21.787 86.952" class="colorabaeb7 svgShape"/><polygon fill="#bbbbc6" points="21.787 86.952 20.423 87.59 20.423 87.59 27.556 91.708 27.805 90.426" class="colorbbbec6 svgShape"/><polygon fill="#404043" points="23.593 77.717 21.787 86.952 27.805 90.426 29.609 81.191" class="color434240 svgShape"/><polygon fill="#bbbbc6" points="42.361 88.554 39.579 102.821 32.448 98.703 35.229 84.436" class="colorbbbec6 svgShape"/><polygon fill="#ababb7" points="33.811 98.065 36.345 85.079 35.23 84.436 32.448 98.703 33.811 98.065" class="colorabaeb7 svgShape"/><polygon fill="#bbbbc6" points="33.811 98.065 32.448 98.703 32.448 98.703 39.58 102.821 39.829 101.539" class="colorbbbec6 svgShape"/><polygon fill="#404043" points="36.345 85.079 33.811 98.065 39.829 101.539 42.361 88.554" class="color434240 svgShape"/><polygon fill="#ababb7" points="34.539 94.314 36.345 85.079 35.23 84.436 33.176 94.953 34.539 94.314" class="colorabaeb7 svgShape"/><polygon fill="#bbbbc6" points="34.539 94.314 33.176 94.953 33.176 94.953 40.308 99.07 40.557 97.789" class="colorbbbec6 svgShape"/><polygon fill="#404043" points="36.345 85.079 34.539 94.314 40.557 97.789 42.361 88.554" class="color434240 svgShape"/><polygon fill="#ababb7" points="17.133 110.805 19.666 97.819 18.552 97.176 15.769 111.443 17.133 110.805" class="colorabaeb7 svgShape"/><polygon fill="#bbbbc6" points="17.133 110.805 15.769 111.443 15.769 111.443 22.902 115.561 23.151 114.279" class="colorbbbec6 svgShape"/><polygon fill="#404043" points="19.666 97.819 17.133 110.805 23.151 114.279 25.683 101.294" class="color434240 svgShape"/><polygon fill="#ababb7" points="17.86 107.055 19.666 97.819 18.552 97.176 16.497 107.693 17.86 107.055" class="colorabaeb7 svgShape"/><polygon fill="#bbbbc6" points="17.86 107.055 16.497 107.693 16.497 107.693 23.63 111.811 23.878 110.529" class="colorbbbec6 svgShape"/><polygon fill="#404043" points="19.666 97.819 17.86 107.055 23.878 110.529 25.683 101.294" class="color434240 svgShape"/><polygon fill="#bbbbc6" points="38.435 108.656 35.652 122.923 28.521 118.805 31.302 104.538" class="colorbbbec6 svgShape"/><polygon fill="#ababb7" points="29.885 118.167 32.419 105.182 31.304 104.538 28.521 118.805 29.885 118.167" class="colorabaeb7 svgShape"/><polygon fill="#bbbbc6" points="29.885 118.167 28.521 118.805 28.521 118.805 35.654 122.923 35.903 121.642" class="colorbbbec6 svgShape"/><polygon fill="#404043" points="32.419 105.182 29.885 118.167 35.903 121.642 38.435 108.656" class="color434240 svgShape"/><polygon fill="#ababb7" points="30.612 114.417 32.419 105.182 31.304 104.538 29.249 115.055 30.612 114.417" class="colorabaeb7 svgShape"/><polygon fill="#bbbbc6" points="30.612 114.417 29.249 115.055 29.249 115.055 36.382 119.173 36.63 117.891" class="colorbbbec6 svgShape"/><polygon fill="#404043" points="32.419 105.182 30.612 114.417 36.63 117.891 38.435 108.656" class="color434240 svgShape"/><polygon fill="#8d8d96" points="109.913 35.187 106.601 37.098 55.121 66.821 52.511 68.327 53.037 66.199 55.508 64.772 106.203 35.504 109.547 33.573" class="color8d9096 svgShape"/><polygon fill="#ababb7" points="52.512 68.327 20.016 49.443 20.541 47.314 53.036 66.199" class="colorabaeb7 svgShape"/><polygon fill="#bbbbc6" points="53.036 66.199 20.541 47.314 77.051 14.688 109.547 33.573" class="colorbbbec6 svgShape"/><polygon fill="#ababb7" points="23.945 47.319 28.123 49.747 77.048 21.5 77.048 16.66" class="colorabaeb7 svgShape"/><polygon fill="#9b9ba5" points="77.048 16.66 77.048 21.5 101.964 35.98 106.142 33.568" class="color9b9ea5 svgShape"/><polygon fill="#8d8d96" points="101.964 35.98 77.048 21.5 28.123 49.747 53.039 64.227" class="color8d9096 svgShape"/><polygon fill="#eaefeb" points="90.539 39.785 90.529 44.458 87.785 42.874 87.795 38.201" class="coloreaefef svgShape"/><polygon fill="#595bd4" points="93.264 38.201 90.539 39.785 87.795 38.201 90.521 36.617" class="color86888e svgShape"/><polygon fill="#d9ddda" points="90.541 39.323 90.53 39.977 87.358 38.146 87.369 37.492" class="colord9dddd svgShape"/><polygon fill="#f2faf3" points="93.691 37.492 90.541 39.323 87.369 37.492 90.52 35.661" class="colorf2f7fa svgShape"/><polygon fill="#d9ddda" points="93.264 35.997 93.255 37.53 90.529 39.114 90.539 37.581" class="colord9dddd svgShape"/><polygon fill="#eaefeb" points="90.539 37.581 90.529 39.114 87.785 37.53 87.795 35.997" class="coloreaefef svgShape"/><polygon fill="#595bd4" points="93.264 35.997 90.539 37.581 87.795 35.997 90.521 34.413" class="color86888e svgShape"/><polygon fill="#eaefeb" points="93.691 35.586 93.68 36.24 90.53 38.071 90.541 37.417" class="coloreaefef svgShape"/><polygon fill="#d9ddda" points="90.541 37.417 90.53 38.071 87.358 36.24 87.369 35.586" class="colord9dddd svgShape"/><polygon fill="#f2faf3" points="93.691 35.586 90.541 37.417 87.369 35.586 90.52 33.755" class="colorf2f7fa svgShape"/><path fill="#fff" d="M88.7118759,41.2731476c-0.0005035,0.1033211-0.0367966,0.1758919-0.0952606,0.2096672
										l-5.1204758,2.9763336c0.0589676-0.0342789,0.095253-0.1068535,0.0957565-0.2096672
										c0.0005035-0.207653-0.1456604-0.4601402-0.3260803-0.5644684
										c-0.0907211-0.0524178-0.173378-0.0574532-0.2328491-0.0226784l5.1204834-2.9763336
										c0.0594711-0.0342827,0.1416168-0.0297394,0.232338,0.0226746
										C88.5667267,40.8130074,88.7123795,41.0660133,88.7118759,41.2731476z" class="colorffffff svgShape"/><ellipse cx="83.265" cy="44.061" fill="#8d8d96" class="color8d9096 svgShape" rx=".267" ry=".461" transform="rotate(-30.162 83.265 44.06)"/><polygon fill="#d9ddda" points="83.812 43.694 83.802 48.367 81.077 49.951 81.086 45.279" class="colord9dddd svgShape"/><polygon fill="#eaefeb" points="81.086 45.279 81.077 49.951 78.333 48.367 78.342 43.694" class="coloreaefef svgShape"/><polygon fill="#595bd4" points="83.812 43.694 81.086 45.279 78.342 43.694 81.068 42.11" class="color86888e svgShape"/><polygon fill="#eaefeb" points="84.239 42.986 84.228 43.64 81.077 45.471 81.088 44.817" class="coloreaefef svgShape"/><polygon fill="#d9ddda" points="81.088 44.817 81.077 45.471 77.906 43.64 77.917 42.986" class="colord9dddd svgShape"/><polygon fill="#f2faf3" points="84.239 42.986 81.088 44.817 77.917 42.986 81.068 41.155" class="colorf2f7fa svgShape"/><polygon fill="#d9ddda" points="83.812 41.49 83.802 43.023 81.077 44.607 81.086 43.075" class="colord9dddd svgShape"/><polygon fill="#eaefeb" points="81.086 43.075 81.077 44.607 78.333 43.023 78.342 41.491" class="coloreaefef svgShape"/><polygon fill="#595bd4" points="83.812 41.49 81.086 43.075 78.342 41.491 81.068 39.906" class="color86888e svgShape"/><polygon fill="#eaefeb" points="84.239 41.079 84.228 41.733 81.077 43.564 81.088 42.91" class="coloreaefef svgShape"/><polygon fill="#d9ddda" points="81.088 42.91 81.077 43.564 77.906 41.733 77.917 41.079" class="colord9dddd svgShape"/><polygon fill="#f2faf3" points="84.239 41.079 81.088 42.91 77.917 41.079 81.068 39.248" class="colorf2f7fa svgShape"/><path fill="#fff" d="M79.2594757,46.7662773c-0.0005035,0.1033211-0.0367889,0.1758957-0.095253,0.209671
										l-5.1204834,2.9763336c0.0589676-0.0342789,0.095253-0.1068535,0.0957565-0.2096672
										c0.0005035-0.207653-0.1456528-0.4601402-0.3260803-0.5644722
										c-0.0907211-0.0524139-0.1733704-0.0574493-0.2328415-0.0226746l5.1204758-2.9763336
										c0.0594788-0.0342827,0.1416245-0.0297432,0.2323456,0.0226746
										C79.1143265,46.3061409,79.2599792,46.5591431,79.2594757,46.7662773z" class="colorffffff svgShape"/><ellipse cx="73.812" cy="49.554" fill="#8d8d96" class="color8d9096 svgShape" rx=".267" ry=".461" transform="rotate(-30.162 73.812 49.554)"/><polygon fill="#d9ddda" points="74.36 49.188 74.35 53.86 71.624 55.444 71.634 50.772" class="colord9dddd svgShape"/><polygon fill="#eaefeb" points="71.634 50.772 71.624 55.444 68.88 53.86 68.89 49.188" class="coloreaefef svgShape"/><polygon fill="#595bd4" points="74.36 49.188 71.634 50.772 68.89 49.188 71.616 47.604" class="color86888e svgShape"/><polygon fill="#eaefeb" points="74.787 48.479 74.776 49.133 71.625 50.964 71.636 50.31" class="coloreaefef svgShape"/><polygon fill="#d9ddda" points="71.636 50.31 71.625 50.964 68.453 49.133 68.464 48.479" class="colord9dddd svgShape"/><polygon fill="#f2faf3" points="74.787 48.479 71.636 50.31 68.464 48.479 71.615 46.648" class="colorf2f7fa svgShape"/><g class="color000000 svgShape"><polygon fill="#d9ddda" points="74.36 46.984 74.35 48.516 71.624 50.101 71.634 48.568" class="colord9dddd svgShape"/><polygon fill="#eaefeb" points="71.634 48.568 71.624 50.101 68.88 48.516 68.89 46.984" class="coloreaefef svgShape"/><polygon fill="#595bd4" points="74.36 46.984 71.634 48.568 68.89 46.984 71.616 45.4" class="color86888e svgShape"/></g><g class="color000000 svgShape"><polygon fill="#eaefeb" points="74.787 46.572 74.776 47.226 71.625 49.057 71.636 48.403" class="coloreaefef svgShape"/><polygon fill="#d9ddda" points="71.636 48.403 71.625 49.057 68.453 47.226 68.464 46.572" class="colord9dddd svgShape"/><polygon fill="#f2faf3" points="74.787 46.572 71.636 48.403 68.464 46.572 71.615 44.741" class="colorf2f7fa svgShape"/></g><g class="color000000 svgShape"><path fill="#fff" d="M69.8070831,52.2594109c-0.0005112,0.1033211-0.0367966,0.1758919-0.0952606,0.209671
										l-5.1204758,2.9763336c0.05896-0.0342827,0.0952454-0.1068535,0.0957565-0.209671
										c0.0005035-0.2076492-0.1456604-0.4601364-0.326088-0.5644684
										c-0.0907135-0.0524178-0.1733704-0.0574493-0.2328415-0.0226746l5.1204834-2.9763374
										c0.0594711-0.0342789,0.1416168-0.0297394,0.232338,0.0226784
										C69.6619263,51.7992706,69.8075867,52.0522766,69.8070831,52.2594109z" class="colorffffff svgShape"/><ellipse cx="64.36" cy="55.047" fill="#8d8d96" class="color8d9096 svgShape" rx=".267" ry=".461" transform="rotate(-30.162 64.36 55.047)"/></g><g class="color000000 svgShape"><polygon fill="#d9ddda" points="64.907 54.681 64.898 59.353 62.172 60.937 62.181 56.265" class="colord9dddd svgShape"/><polygon fill="#eaefeb" points="62.181 56.265 62.172 60.937 59.428 59.353 59.438 54.681" class="coloreaefef svgShape"/><polygon fill="#595bd4" points="64.907 54.681 62.181 56.265 59.438 54.681 62.163 53.097" class="color86888e svgShape"/><polygon fill="#eaefeb" points="65.334 53.972 65.323 54.626 62.172 56.457 62.183 55.803" class="coloreaefef svgShape"/><polygon fill="#d9ddda" points="62.183 55.803 62.172 56.457 59.001 54.626 59.012 53.972" class="colord9dddd svgShape"/><polygon fill="#f2faf3" points="65.334 53.972 62.183 55.803 59.012 53.972 62.163 52.141" class="colorf2f7fa svgShape"/><g class="color000000 svgShape"><polygon fill="#d9ddda" points="64.907 52.477 64.898 54.01 62.172 55.594 62.181 54.061" class="colord9dddd svgShape"/><polygon fill="#eaefeb" points="62.181 54.061 62.172 55.594 59.428 54.01 59.438 52.477" class="coloreaefef svgShape"/><polygon fill="#595bd4" points="64.907 52.477 62.181 54.061 59.438 52.477 62.163 50.893" class="color86888e svgShape"/></g><g class="color000000 svgShape"><polygon fill="#eaefeb" points="65.334 52.065 65.323 52.719 62.172 54.55 62.183 53.896" class="coloreaefef svgShape"/><polygon fill="#d9ddda" points="62.183 53.896 62.172 54.55 59.001 52.719 59.012 52.065" class="colord9dddd svgShape"/><polygon fill="#f2faf3" points="65.334 52.065 62.183 53.896 59.012 52.065 62.163 50.234" class="colorf2f7fa svgShape"/></g></g><g class="color000000 svgShape"><path fill="#fff" d="M60.3546829,57.7525444c-0.0005035,0.1033211-0.0367928,0.1758919-0.0952568,0.2096672
										l-5.1204796,2.9763374c0.0589676-0.0342827,0.095253-0.1068535,0.0957565-0.209671
										c0.0005035-0.2076492-0.1456528-0.4601402-0.3260803-0.5644684
										c-0.0907211-0.0524178-0.1733742-0.0574493-0.2328453-0.0226784l5.1204796-2.9763336
										c0.0594749-0.0342789,0.1416245-0.0297394,0.2323456,0.0226784
										C60.2095337,57.2924042,60.3551865,57.5454102,60.3546829,57.7525444z" class="colorffffff svgShape"/><ellipse cx="54.908" cy="60.54" fill="#8d8d96" class="color8d9096 svgShape" rx=".267" ry=".461" transform="rotate(-30.162 54.908 60.54)"/></g><g class="color000000 svgShape"><polygon fill="#f2faf3" points="65.334 52.065 62.183 53.896 59.012 52.065 62.163 50.234" class="colorf2f7fa svgShape"/></g><g class="color000000 svgShape"><polygon fill="#eaefeb" points="29.749 47.494 29.739 50.877 26.995 49.293 27.005 45.91" class="coloreaefef svgShape"/><polygon fill="#595bd4" points="32.474 45.91 29.749 47.494 27.005 45.91 29.731 44.326" class="color86888e svgShape"/><polygon fill="#d9ddda" points="29.751 47.032 29.74 47.686 26.568 45.855 26.579 45.201" class="colord9dddd svgShape"/><polygon fill="#f2faf3" points="32.901 45.201 29.751 47.032 26.579 45.201 29.73 43.37" class="colorf2f7fa svgShape"/><g class="color000000 svgShape"><polygon fill="#d9ddda" points="32.474 43.706 32.465 45.239 29.739 46.823 29.749 45.29" class="colord9dddd svgShape"/><polygon fill="#eaefeb" points="29.749 45.29 29.739 46.823 26.995 45.239 27.005 43.706" class="coloreaefef svgShape"/><polygon fill="#595bd4" points="32.474 43.706 29.749 45.29 27.005 43.706 29.731 42.122" class="color86888e svgShape"/></g><g class="color000000 svgShape"><polygon fill="#eaefeb" points="32.901 43.294 32.89 43.948 29.74 45.779 29.751 45.125" class="coloreaefef svgShape"/><polygon fill="#d9ddda" points="29.751 45.125 29.74 45.779 26.568 43.948 26.579 43.294" class="colord9dddd svgShape"/><polygon fill="#f2faf3" points="32.901 43.294 29.751 45.125 26.579 43.294 29.73 41.463" class="colorf2f7fa svgShape"/></g></g><g class="color000000 svgShape"><polygon fill="#eaefeb" points="36.527 51.334 36.537 56.006 39.281 54.422 39.271 49.75" class="coloreaefef svgShape"/><polygon fill="#595bd4" points="33.801 49.75 36.527 51.334 39.271 49.75 36.545 48.165" class="color86888e svgShape"/><polygon fill="#d9ddda" points="36.525 50.872 36.536 51.526 39.708 49.695 39.696 49.041" class="colord9dddd svgShape"/><polygon fill="#f2faf3" points="33.374 49.041 36.525 50.872 39.696 49.041 36.546 47.21" class="colorf2f7fa svgShape"/><g class="color000000 svgShape"><polygon fill="#d9ddda" points="33.801 47.546 33.811 49.078 36.537 50.663 36.527 49.13" class="colord9dddd svgShape"/><polygon fill="#eaefeb" points="36.527 49.13 36.537 50.663 39.281 49.078 39.271 47.546" class="coloreaefef svgShape"/><polygon fill="#595bd4" points="33.801 47.546 36.527 49.13 39.271 47.546 36.545 45.962" class="color86888e svgShape"/></g><g class="color000000 svgShape"><polygon fill="#eaefeb" points="33.374 47.134 33.385 47.788 36.536 49.619 36.525 48.965" class="coloreaefef svgShape"/><polygon fill="#d9ddda" points="36.525 48.965 36.536 49.619 39.708 47.788 39.696 47.134" class="colord9dddd svgShape"/><polygon fill="#f2faf3" points="33.374 47.134 36.525 48.965 39.696 47.134 36.546 45.303" class="colorf2f7fa svgShape"/></g></g><g class="color000000 svgShape"><polygon fill="#d9ddda" points="79.74 18.452 79.731 23.125 77.005 24.709 77.015 20.036" class="colord9dddd svgShape"/><polygon fill="#eaefeb" points="77.015 20.036 77.005 24.709 74.261 23.125 74.271 18.452" class="coloreaefef svgShape"/><polygon fill="#595bd4" points="79.74 18.452 77.015 20.036 74.271 18.452 76.997 16.868" class="color86888e svgShape"/><polygon fill="#eaefeb" points="80.168 17.743 80.156 18.397 77.006 20.228 77.017 19.574" class="coloreaefef svgShape"/><polygon fill="#d9ddda" points="77.017 19.574 77.006 20.228 73.834 18.397 73.845 17.743" class="colord9dddd svgShape"/><polygon fill="#f2faf3" points="80.168 17.743 77.017 19.574 73.845 17.743 76.996 15.912" class="colorf2f7fa svgShape"/><g class="color000000 svgShape"><polygon fill="#d9ddda" points="79.74 16.248 79.731 17.781 77.005 19.365 77.015 17.832" class="colord9dddd svgShape"/><polygon fill="#eaefeb" points="77.015 17.832 77.005 19.365 74.261 17.781 74.271 16.248" class="coloreaefef svgShape"/><polygon fill="#595bd4" points="79.74 16.248 77.015 17.832 74.271 16.248 76.997 14.664" class="color86888e svgShape"/></g><g class="color000000 svgShape"><polygon fill="#eaefeb" points="80.168 15.837 80.156 16.491 77.006 18.322 77.017 17.668" class="coloreaefef svgShape"/><polygon fill="#d9ddda" points="77.017 17.668 77.006 18.322 73.834 16.491 73.845 15.837" class="colord9dddd svgShape"/><polygon fill="#f2faf3" points="80.168 15.837 77.017 17.668 73.845 15.837 76.996 14.006" class="colorf2f7fa svgShape"/></g></g><g class="color000000 svgShape"><path fill="#fff" d="M75.3859711,21.4361c-0.0005035,0.1033211-0.0367889,0.1758938-0.095253,0.2096691
										l-5.1204834,2.9763336c0.0589676-0.0342808,0.095253-0.1068516,0.0957565-0.2096691
										c0.0005035-0.2076492-0.1456528-0.4601383-0.3260803-0.5644684
										c-0.0907211-0.0524178-0.173378-0.0574493-0.2328491-0.0226765l5.1204834-2.9763355
										c0.0594711-0.0342789,0.1416245-0.0297394,0.2323456,0.0226784
										C75.2408218,20.9759617,75.3864746,21.2289658,75.3859711,21.4361z" class="colorffffff svgShape"/><ellipse cx="69.939" cy="24.224" fill="#8d8d96" class="color8d9096 svgShape" rx=".267" ry=".461" transform="rotate(-30.162 69.939 24.224)"/></g><g class="color000000 svgShape"><path fill="#fff" d="M78.1777954,21.8586617c0.0005035,0.1033211,0.0367889,0.1758938,0.095253,0.2096691
										l5.1204834,2.9763336c-0.0589676-0.0342808-0.095253-0.1068516-0.0957565-0.2096691
										c-0.0005035-0.2076492,0.1456528-0.4601383,0.3260803-0.5644684
										c0.0907211-0.0524178,0.173378-0.0574493,0.2328491-0.0226765l-5.1204834-2.9763355
										c-0.0594711-0.0342789-0.1416245-0.0297394-0.2323456,0.0226784
										C78.3229446,21.3985233,78.1772919,21.6515274,78.1777954,21.8586617z" class="colorffffff svgShape"/><ellipse cx="83.625" cy="24.646" fill="#8d8d96" class="color8d9096 svgShape" rx=".461" ry=".267" transform="rotate(-59.838 83.625 24.646)"/></g><g class="color000000 svgShape"><polygon fill="#d9ddda" points="70.284 23.937 70.274 28.61 67.548 30.194 67.558 25.521" class="colord9dddd svgShape"/><polygon fill="#eaefeb" points="67.558 25.521 67.548 30.194 64.805 28.61 64.814 23.937" class="coloreaefef svgShape"/><polygon fill="#595bd4" points="70.284 23.937 67.558 25.521 64.814 23.937 67.54 22.353" class="color86888e svgShape"/><polygon fill="#eaefeb" points="70.711 23.228 70.7 23.882 67.549 25.713 67.56 25.059" class="coloreaefef svgShape"/><polygon fill="#d9ddda" points="67.56 25.059 67.549 25.713 64.378 23.882 64.389 23.228" class="colord9dddd svgShape"/><polygon fill="#f2faf3" points="70.711 23.228 67.56 25.059 64.389 23.228 67.54 21.397" class="colorf2f7fa svgShape"/><g class="color000000 svgShape"><polygon fill="#d9ddda" points="70.284 21.733 70.274 23.266 67.548 24.85 67.558 23.317" class="colord9dddd svgShape"/><polygon fill="#eaefeb" points="67.558 23.317 67.548 24.85 64.805 23.266 64.814 21.733" class="coloreaefef svgShape"/><polygon fill="#595bd4" points="70.284 21.733 67.558 23.317 64.814 21.733 67.54 20.149" class="color86888e svgShape"/></g><g class="color000000 svgShape"><polygon fill="#eaefeb" points="70.711 21.322 70.7 21.976 67.549 23.807 67.56 23.153" class="coloreaefef svgShape"/><polygon fill="#d9ddda" points="67.56 23.153 67.549 23.807 64.378 21.976 64.389 21.322" class="colord9dddd svgShape"/><polygon fill="#f2faf3" points="70.711 21.322 67.56 23.153 64.389 21.322 67.54 19.491" class="colorf2f7fa svgShape"/></g></g><g class="color000000 svgShape"><path fill="#fff" d="M65.9335709,26.9292336c-0.0005035,0.1033211-0.0367889,0.1758919-0.095253,0.2096691
										l-5.1204796,2.9763336c0.0589638-0.0342808,0.095253-0.1068535,0.0957565-0.2096691
										c0.0005035-0.2076511-0.1456566-0.4601383-0.3260803-0.5644684
										c-0.0907211-0.0524178-0.1733742-0.0574493-0.2328453-0.0226784l5.1204834-2.9763336
										c0.0594711-0.0342808,0.1416168-0.0297394,0.232338,0.0226765
										C65.7884216,26.4690933,65.934082,26.7220993,65.9335709,26.9292336z" class="colorffffff svgShape"/><ellipse cx="60.486" cy="29.717" fill="#8d8d96" class="color8d9096 svgShape" rx=".267" ry=".461" transform="rotate(-30.162 60.486 29.717)"/></g><g class="color000000 svgShape"><polygon fill="#d9ddda" points="60.832 29.43 60.822 34.103 58.096 35.687 58.106 31.015" class="colord9dddd svgShape"/><polygon fill="#eaefeb" points="58.106 31.015 58.096 35.687 55.352 34.103 55.362 29.43" class="coloreaefef svgShape"/><polygon fill="#595bd4" points="60.832 29.43 58.106 31.015 55.362 29.43 58.088 27.846" class="color86888e svgShape"/><polygon fill="#eaefeb" points="61.259 28.721 61.248 29.375 58.097 31.206 58.108 30.553" class="coloreaefef svgShape"/><polygon fill="#d9ddda" points="58.108 30.553 58.097 31.206 54.925 29.375 54.936 28.722" class="colord9dddd svgShape"/><polygon fill="#f2faf3" points="61.259 28.721 58.108 30.553 54.936 28.722 58.087 26.89" class="colorf2f7fa svgShape"/><g class="color000000 svgShape"><polygon fill="#d9ddda" points="60.832 27.226 60.822 28.759 58.096 30.343 58.106 28.811" class="colord9dddd svgShape"/><polygon fill="#eaefeb" points="58.106 28.811 58.096 30.343 55.352 28.759 55.362 27.226" class="coloreaefef svgShape"/><polygon fill="#595bd4" points="60.832 27.226 58.106 28.811 55.362 27.226 58.088 25.642" class="color86888e svgShape"/></g><g class="color000000 svgShape"><polygon fill="#eaefeb" points="61.259 26.815 61.248 27.469 58.097 29.3 58.108 28.646" class="coloreaefef svgShape"/><polygon fill="#d9ddda" points="58.108 28.646 58.097 29.3 54.925 27.469 54.936 26.815" class="colord9dddd svgShape"/><polygon fill="#f2faf3" points="61.259 26.815 58.108 28.646 54.936 26.815 58.087 24.984" class="colorf2f7fa svgShape"/></g><g class="color000000 svgShape"><path fill="#fff" d="M56.4811783,32.4223671c-0.0005074,0.1033211-0.0367928,0.1758919-0.0952568,0.2096672
										l-5.1204796,2.9763336c0.0589638-0.0342789,0.0952492-0.1068497,0.0957565-0.2096672
										c0.0005035-0.207653-0.1456566-0.4601402-0.3260841-0.5644684
										c-0.0907173-0.0524178-0.1733704-0.0574493-0.2328415-0.0226784l5.1204796-2.9763336
										c0.0594749-0.0342808,0.1416206-0.0297413,0.2323418,0.0226765
										C56.3360252,31.9622269,56.4816818,32.2152328,56.4811783,32.4223671z" class="colorffffff svgShape"/></g><g class="color000000 svgShape"><ellipse cx="51.034" cy="35.21" fill="#8d8d96" class="color8d9096 svgShape" rx=".267" ry=".461" transform="rotate(-30.162 51.034 35.21)"/></g></g><g class="color000000 svgShape"><polygon fill="#d9ddda" points="51.379 34.924 51.37 39.596 48.644 41.18 48.653 36.508" class="colord9dddd svgShape"/><polygon fill="#eaefeb" points="48.653 36.508 48.644 41.18 45.9 39.596 45.91 34.924" class="coloreaefef svgShape"/><polygon fill="#595bd4" points="51.379 34.924 48.653 36.508 45.91 34.924 48.635 33.339" class="color86888e svgShape"/><polygon fill="#eaefeb" points="51.806 34.215 51.795 34.869 48.644 36.7 48.655 36.046" class="coloreaefef svgShape"/><polygon fill="#d9ddda" points="48.655 36.046 48.644 36.7 45.473 34.869 45.484 34.215" class="colord9dddd svgShape"/><polygon fill="#f2faf3" points="51.806 34.215 48.655 36.046 45.484 34.215 48.635 32.384" class="colorf2f7fa svgShape"/><g class="color000000 svgShape"><polygon fill="#d9ddda" points="51.379 32.72 51.37 34.252 48.644 35.837 48.653 34.304" class="colord9dddd svgShape"/><polygon fill="#eaefeb" points="48.653 34.304 48.644 35.837 45.9 34.252 45.91 32.72" class="coloreaefef svgShape"/><polygon fill="#595bd4" points="51.379 32.72 48.653 34.304 45.91 32.72 48.635 31.135" class="color86888e svgShape"/></g><g class="color000000 svgShape"><polygon fill="#eaefeb" points="51.806 32.308 51.795 32.962 48.644 34.793 48.655 34.139" class="coloreaefef svgShape"/><polygon fill="#d9ddda" points="48.655 34.139 48.644 34.793 45.473 32.962 45.484 32.308" class="colord9dddd svgShape"/><polygon fill="#f2faf3" points="51.806 32.308 48.655 34.139 45.484 32.308 48.635 30.477" class="colorf2f7fa svgShape"/></g></g><g class="color000000 svgShape"><path fill="#fff" d="M47.0287781,37.9155006c-0.0005035,0.1033173-0.0367889,0.1758919-0.095253,0.2096672
										l-5.1204796,2.9763336c0.0589638-0.0342789,0.0952492-0.1068535,0.0957565-0.2096672
										c0.0005035-0.207653-0.1456566-0.4601402-0.3260841-0.5644684
										c-0.0907173-0.0524178-0.1733742-0.0574532-0.2328415-0.0226784l5.1204796-2.9763336
										c0.0594749-0.0342827,0.1416206-0.0297394,0.2323418,0.0226746
										C46.8836288,37.4553604,47.0292854,37.7083664,47.0287781,37.9155006z" class="colorffffff svgShape"/><ellipse cx="41.582" cy="40.703" fill="#8d8d96" class="color8d9096 svgShape" rx=".267" ry=".461" transform="rotate(-30.162 41.582 40.703)"/></g><g class="color000000 svgShape"><polygon fill="#d9ddda" points="41.927 40.417 41.917 45.089 39.191 46.673 39.201 42.001" class="colord9dddd svgShape"/><polygon fill="#eaefeb" points="39.201 42.001 39.191 46.673 36.448 45.089 36.457 40.417" class="coloreaefef svgShape"/><polygon fill="#595bd4" points="41.927 40.417 39.201 42.001 36.457 40.417 39.183 38.833" class="color86888e svgShape"/><polygon fill="#eaefeb" points="42.354 39.708 42.343 40.362 39.192 42.193 39.203 41.539" class="coloreaefef svgShape"/><polygon fill="#d9ddda" points="39.203 41.539 39.192 42.193 36.021 40.362 36.032 39.708" class="colord9dddd svgShape"/><polygon fill="#f2faf3" points="42.354 39.708 39.203 41.539 36.032 39.708 39.182 37.877" class="colorf2f7fa svgShape"/><g class="color000000 svgShape"><polygon fill="#d9ddda" points="41.927 38.213 41.917 39.746 39.191 41.33 39.201 39.797" class="colord9dddd svgShape"/><polygon fill="#eaefeb" points="39.201 39.797 39.191 41.33 36.448 39.746 36.457 38.213" class="coloreaefef svgShape"/><polygon fill="#595bd4" points="41.927 38.213 39.201 39.797 36.457 38.213 39.183 36.629" class="color86888e svgShape"/></g><g class="color000000 svgShape"><polygon fill="#eaefeb" points="42.354 37.801 42.343 38.455 39.192 40.286 39.203 39.632" class="coloreaefef svgShape"/><polygon fill="#d9ddda" points="39.203 39.632 39.192 40.286 36.021 38.455 36.032 37.801" class="colord9dddd svgShape"/><polygon fill="#f2faf3" points="42.354 37.801 39.203 39.632 36.032 37.801 39.182 35.97" class="colorf2f7fa svgShape"/></g></g><g class="color000000 svgShape"><path fill="#fff" d="M37.5763817,43.4086304c-0.0005035,0.1033211-0.0367889,0.1758957-0.095253,0.209671
										l-5.1204834,2.9763336c0.0589676-0.0342827,0.095253-0.1068535,0.0957565-0.209671
										c0.0005074-0.2076492-0.1456528-0.4601364-0.3260803-0.5644684
										c-0.0907173-0.0524178-0.1733723-0.0574493-0.2328434-0.0226746l5.1204815-2.9763374
										c0.0594711-0.0342789,0.1416206-0.0297394,0.2323418,0.0226784
										C37.4312325,42.948494,37.576889,43.2014961,37.5763817,43.4086304z" class="colorffffff svgShape"/><ellipse cx="32.129" cy="46.196" fill="#8d8d96" class="color8d9096 svgShape" rx=".267" ry=".461" transform="rotate(-30.162 32.13 46.196)"/></g><g class="color000000 svgShape"><polygon fill="#d9ddda" points="81.544 22.625 81.554 27.297 84.28 28.881 84.27 24.209" class="colord9dddd svgShape"/><polygon fill="#eaefeb" points="84.27 24.209 84.28 28.881 87.024 27.297 87.014 22.625" class="coloreaefef svgShape"/><polygon fill="#595bd4" points="81.544 22.625 84.27 24.209 87.014 22.625 84.288 21.04" class="color86888e svgShape"/><polygon fill="#eaefeb" points="81.117 21.916 81.128 22.57 84.279 24.401 84.268 23.747" class="coloreaefef svgShape"/><polygon fill="#d9ddda" points="84.268 23.747 84.279 24.401 87.451 22.57 87.44 21.916" class="colord9dddd svgShape"/><polygon fill="#f2faf3" points="81.117 21.916 84.268 23.747 87.44 21.916 84.289 20.085" class="colorf2f7fa svgShape"/><g class="color000000 svgShape"><polygon fill="#d9ddda" points="81.544 20.421 81.554 21.953 84.28 23.537 84.27 22.005" class="colord9dddd svgShape"/><polygon fill="#eaefeb" points="84.27 22.005 84.28 23.537 87.024 21.953 87.014 20.421" class="coloreaefef svgShape"/><polygon fill="#595bd4" points="81.544 20.421 84.27 22.005 87.014 20.421 84.288 18.836" class="color86888e svgShape"/></g><g class="color000000 svgShape"><polygon fill="#eaefeb" points="81.117 20.009 81.128 20.663 84.279 22.494 84.268 21.84" class="coloreaefef svgShape"/><polygon fill="#d9ddda" points="84.268 21.84 84.279 22.494 87.451 20.663 87.44 20.009" class="colord9dddd svgShape"/><polygon fill="#f2faf3" points="81.117 20.009 84.268 21.84 87.44 20.009 84.289 18.178" class="colorf2f7fa svgShape"/></g></g><g class="color000000 svgShape"><path fill="#fff" d="M85.6469727,25.6537895c0.0005035,0.1033211,0.0367889,0.1758919,0.095253,0.2096691
										l5.1204834,2.9763336c-0.0589676-0.0342808-0.095253-0.1068516-0.0957642-0.2096691
										c-0.0005035-0.2076511,0.1456604-0.4601383,0.326088-0.5644684
										c0.0907135-0.0524178,0.1733704-0.0574493,0.2328415-0.0226765l-5.1204834-2.9763355
										c-0.0594711-0.0342808-0.1416168-0.0297394-0.232338,0.0226784
										C85.7921219,25.1936493,85.6464615,25.4466553,85.6469727,25.6537895z" class="colorffffff svgShape"/><ellipse cx="91.094" cy="28.441" fill="#8d8d96" class="color8d9096 svgShape" rx=".461" ry=".267" transform="rotate(-59.838 91.094 28.441)"/></g><g class="color000000 svgShape"><polygon fill="#d9ddda" points="90.429 27.777 90.439 32.449 93.165 34.033 93.155 29.361" class="colord9dddd svgShape"/><polygon fill="#eaefeb" points="93.155 29.361 93.165 34.033 95.908 32.449 95.899 27.777" class="coloreaefef svgShape"/><polygon fill="#595bd4" points="90.429 27.777 93.155 29.361 95.899 27.777 93.173 26.193" class="color86888e svgShape"/><polygon fill="#eaefeb" points="90.002 27.068 90.013 27.722 93.164 29.553 93.153 28.899" class="coloreaefef svgShape"/><polygon fill="#d9ddda" points="93.153 28.899 93.164 29.553 96.335 27.722 96.324 27.068" class="colord9dddd svgShape"/><polygon fill="#f2faf3" points="90.002 27.068 93.153 28.899 96.324 27.068 93.173 25.237" class="colorf2f7fa svgShape"/><g class="color000000 svgShape"><polygon fill="#d9ddda" points="90.429 25.573 90.439 27.106 93.165 28.69 93.155 27.157" class="colord9dddd svgShape"/><polygon fill="#eaefeb" points="93.155 27.157 93.165 28.69 95.908 27.106 95.899 25.573" class="coloreaefef svgShape"/><polygon fill="#595bd4" points="90.429 25.573 93.155 27.157 95.899 25.573 93.173 23.989" class="color86888e svgShape"/></g><g class="color000000 svgShape"><polygon fill="#eaefeb" points="90.002 25.161 90.013 25.815 93.164 27.646 93.153 26.992" class="coloreaefef svgShape"/><polygon fill="#d9ddda" points="93.153 26.992 93.164 27.646 96.335 25.815 96.324 25.161" class="colord9dddd svgShape"/><polygon fill="#f2faf3" points="90.002 25.161 93.153 26.992 96.324 25.161 93.173 23.33" class="colorf2f7fa svgShape"/></g></g><g class="color000000 svgShape"><path fill="#fff" d="M94.2072678,30.6241207c0.0005035,0.1033211,0.0367889,0.1758938,0.095253,0.2096691
										l5.1204834,2.9763336c-0.0589676-0.0342789-0.095253-0.1068535-0.0957565-0.2096672
										c-0.0005035-0.207653,0.1456528-0.4601402,0.3260803-0.5644684
										c0.0907211-0.0524178,0.1733704-0.0574532,0.2328415-0.0226784l-5.1204758-2.9763355
										c-0.0594788-0.0342789-0.1416245-0.0297394-0.2323456,0.0226784
										C94.352417,30.1639824,94.2067642,30.4169865,94.2072678,30.6241207z" class="colorffffff svgShape"/><ellipse cx="99.654" cy="33.412" fill="#8d8d96" class="color8d9096 svgShape" rx=".461" ry=".267" transform="rotate(-59.838 99.654 33.412)"/></g><g class="color000000 svgShape"><path fill="#fff" d="M38.476017,52.1738167c0.0005035,0.1033211,0.0367928,0.1758957,0.0952568,0.209671
										l5.1204796,2.9763336c-0.0589676-0.0342789-0.095253-0.1068535-0.0957565-0.2096672
										c-0.0005035-0.207653,0.1456566-0.4601402,0.3260803-0.5644722
										c0.0907211-0.0524139,0.1733742-0.0574493,0.2328453-0.0226746l-5.1204796-2.9763336
										c-0.0594749-0.0342827-0.1416206-0.0297432-0.2323418,0.0226746
										C38.6211662,51.7136803,38.4755135,51.9666862,38.476017,52.1738167z" class="colorffffff svgShape"/><ellipse cx="43.923" cy="54.961" fill="#8d8d96" class="color8d9096 svgShape" rx=".461" ry=".267" transform="rotate(-59.838 43.923 54.961)"/></g><g class="color000000 svgShape"><polygon fill="#d9ddda" points="102.717 32.708 102.707 37.381 99.981 38.965 99.991 34.292" class="colord9dddd svgShape"/><polygon fill="#eaefeb" points="99.991 34.292 99.981 38.965 97.238 37.381 97.247 32.708" class="coloreaefef svgShape"/><polygon fill="#595bd4" points="102.717 32.708 99.991 34.292 97.247 32.708 99.973 31.124" class="color86888e svgShape"/><polygon fill="#eaefeb" points="103.144 31.999 103.133 32.653 99.982 34.484 99.993 33.83" class="coloreaefef svgShape"/><polygon fill="#d9ddda" points="99.993 33.83 99.982 34.484 96.811 32.653 96.822 31.999" class="colord9dddd svgShape"/><polygon fill="#f2faf3" points="103.144 31.999 99.993 33.83 96.822 31.999 99.972 30.168" class="colorf2f7fa svgShape"/><g class="color000000 svgShape"><polygon fill="#d9ddda" points="102.717 30.504 102.707 32.037 99.981 33.621 99.991 32.088" class="colord9dddd svgShape"/><polygon fill="#eaefeb" points="99.991 32.088 99.981 33.621 97.238 32.037 97.247 30.504" class="coloreaefef svgShape"/><polygon fill="#595bd4" points="102.717 30.504 99.991 32.088 97.247 30.504 99.973 28.92" class="color86888e svgShape"/></g><g class="color000000 svgShape"><polygon fill="#eaefeb" points="103.144 30.093 103.133 30.746 99.982 32.578 99.993 31.924" class="coloreaefef svgShape"/><polygon fill="#d9ddda" points="99.993 31.924 99.982 32.578 96.811 30.747 96.822 30.093" class="colord9dddd svgShape"/><polygon fill="#f2faf3" points="103.144 30.093 99.993 31.924 96.822 30.093 99.972 28.262" class="colorf2f7fa svgShape"/></g></g><g class="color000000 svgShape"><path fill="#fff" d="M98.0707321,35.9062958c-0.0005035,0.1033211-0.0367889,0.1758919-0.095253,0.209671
										l-5.1204834,2.9763336c0.0589676-0.0342827,0.095253-0.1068535,0.0957642-0.209671
										c0.0005035-0.2076492-0.1456604-0.4601364-0.326088-0.5644684
										c-0.0907135-0.0524178-0.1733704-0.0574493-0.2328415-0.0226784l5.1204834-2.9763336
										c0.0594711-0.0342789,0.1416168-0.0297394,0.232338,0.0226784
										C97.9255829,35.4461555,98.0712433,35.6991615,98.0707321,35.9062958z" class="colorffffff svgShape"/><ellipse cx="92.624" cy="38.694" fill="#8d8d96" class="color8d9096 svgShape" rx=".267" ry=".461" transform="rotate(-30.162 92.624 38.694)"/></g><g class="color000000 svgShape"><polygon fill="#d9ddda" points="93.264 38.201 93.255 42.874 90.529 44.458 90.539 39.785" class="colord9dddd svgShape"/></g><g class="color000000 svgShape"><polygon fill="#eaefeb" points="93.691 37.492 93.68 38.146 90.53 39.977 90.541 39.323" class="coloreaefef svgShape"/></g><g class="color000000 svgShape"><polygon fill="#d9ddda" points="55.455 60.174 55.445 63.557 52.719 65.141 52.729 61.758" class="colord9dddd svgShape"/><polygon fill="#eaefeb" points="52.729 61.758 52.719 65.141 49.976 63.557 49.985 60.174" class="coloreaefef svgShape"/><polygon fill="#595bd4" points="55.455 60.174 52.729 61.758 49.985 60.174 52.711 58.59" class="color86888e svgShape"/><polygon fill="#eaefeb" points="55.882 59.465 55.871 60.119 52.72 61.95 52.731 61.296" class="coloreaefef svgShape"/><polygon fill="#d9ddda" points="52.731 61.296 52.72 61.95 49.549 60.119 49.56 59.465" class="colord9dddd svgShape"/><polygon fill="#f2faf3" points="55.882 59.465 52.731 61.296 49.56 59.465 52.71 57.634" class="colorf2f7fa svgShape"/><g class="color000000 svgShape"><polygon fill="#d9ddda" points="55.455 57.97 55.445 59.503 52.719 61.087 52.729 59.554" class="colord9dddd svgShape"/><polygon fill="#595bd4" points="55.455 57.97 52.729 59.554 49.985 57.97 52.711 56.386" class="color86888e svgShape"/></g><polygon fill="#f2faf3" points="55.882 57.558 52.731 59.389 49.56 57.558 52.71 55.727" class="colorf2f7fa svgShape" enable-background="new"/></g><g class="color000000 svgShape"><polygon fill="#d9ddda" points="42.686 54.902 42.696 59.574 45.421 61.158 45.412 56.486" class="colord9dddd svgShape"/><polygon fill="#eaefeb" points="45.412 56.486 45.421 61.158 48.165 59.574 48.155 54.902" class="coloreaefef svgShape"/><polygon fill="#595bd4" points="42.686 54.902 45.412 56.486 48.155 54.902 45.43 53.318" class="color86888e svgShape"/><polygon fill="#eaefeb" points="42.259 54.193 42.27 54.847 45.421 56.678 45.41 56.024" class="coloreaefef svgShape"/><polygon fill="#d9ddda" points="45.41 56.024 45.421 56.678 48.592 54.847 48.581 54.193" class="colord9dddd svgShape"/><polygon fill="#f2faf3" points="42.259 54.193 45.41 56.024 48.581 54.193 45.43 52.362" class="colorf2f7fa svgShape"/><g class="color000000 svgShape"><polygon fill="#d9ddda" points="42.686 52.698 42.696 54.231 45.421 55.815 45.412 54.282" class="colord9dddd svgShape"/><polygon fill="#eaefeb" points="45.412 54.282 45.421 55.815 48.165 54.231 48.155 52.698" class="coloreaefef svgShape"/><polygon fill="#595bd4" points="42.686 52.698 45.412 54.282 48.155 52.698 45.43 51.114" class="color86888e svgShape"/></g><g class="color000000 svgShape"><polygon fill="#eaefeb" points="42.259 52.286 42.27 52.94 45.421 54.771 45.41 54.117" class="coloreaefef svgShape"/><polygon fill="#d9ddda" points="45.41 54.117 45.421 54.771 48.592 52.94 48.581 52.286" class="colord9dddd svgShape"/><polygon fill="#f2faf3" points="42.259 52.286 45.41 54.117 48.581 52.286 45.43 50.455" class="colorf2f7fa svgShape"/></g></g><polygon fill="#bbbbc6" points="109.547 33.573 53.037 66.198 53.04 64.226 106.141 33.568" class="colorbbbec6 svgShape"/><g class="color000000 svgShape"><path fill="#fff" d="M47.0363159,57.1441498c0.0005035,0.1033211,0.0367889,0.1758919,0.095253,0.2096672
										l5.1204834,2.9763374c-0.0589676-0.0342827-0.095253-0.1068535-0.0957565-0.209671
										c-0.0005074-0.2076492,0.1456528-0.4601364,0.3260803-0.5644684
										c0.0907173-0.0524178,0.1733742-0.0574493,0.2328453-0.0226784L47.594738,56.557003
										c-0.0594711-0.0342789-0.1416206-0.0297394-0.2323418,0.0226784
										C47.1814651,56.6840096,47.0358086,56.9370155,47.0363159,57.1441498z" class="colorffffff svgShape"/><ellipse cx="52.483" cy="59.932" fill="#8d8d96" class="color8d9096 svgShape" rx=".461" ry=".267" transform="rotate(-59.838 52.483 59.932)"/></g><g class="color000000 svgShape"><polygon fill="#eaefeb" points="52.729 59.554 52.719 61.087 49.976 59.503 49.985 57.97" class="coloreaefef svgShape"/></g><g class="color000000 svgShape"><polygon fill="#d9ddda" points="52.731 59.389 52.72 60.043 49.549 58.212 49.56 57.558" class="colord9dddd svgShape"/></g><g class="color000000 svgShape"><polygon fill="#eaefeb" points="55.882 57.558 55.871 58.212 52.72 60.043 52.731 59.389" class="coloreaefef svgShape"/></g><g class="color000000 svgShape"><polygon fill="#d9ddda" points="32.474 45.91 32.465 49.293 29.739 50.877 29.749 47.494" class="colord9dddd svgShape"/></g><g class="color000000 svgShape"><polygon fill="#eaefeb" points="32.901 45.201 32.89 45.855 29.74 47.686 29.751 47.032" class="coloreaefef svgShape"/></g><g class="color000000 svgShape"><path fill="#fff" d="M33.5447998,48.9421883l-1.9795418-1.15065
										c-0.0594635-0.0342789-0.1416149-0.0297318-0.2323246,0.022686
										c-0.1809292,0.1043091-0.3265972,0.3573151-0.326086,0.5644531
										c0.0005112,0.1033249,0.0367947,0.1758919,0.0952549,0.2096786l2.9949207,1.7408524L33.5447998,48.9421883z" class="colorffffff svgShape" enable-background="new"/></g><g class="color000000 svgShape"><polygon fill="#d9ddda" points="33.801 49.75 33.811 54.422 36.537 56.006 36.527 51.334" class="colord9dddd svgShape"/></g><g class="color000000 svgShape"><polygon fill="#eaefeb" points="33.374 49.041 33.385 49.695 36.536 51.526 36.525 50.872" class="coloreaefef svgShape"/></g><polygon fill="#bbbbc6" points="53.04 64.226 53.037 66.198 20.54 47.315 23.945 47.32" class="colorbbbec6 svgShape"/><polygon fill="#f2faf3" points="33.855 49.319 33.374 49.04 33.658 48.877" class="colorf2f7fa svgShape"/><g class="color000000 svgShape"><polygon fill="#bbbbc6" points="49.385 41.389 49.403 45.236 59.921 51.348 59.903 47.501" class="colorbbbec6 svgShape"/><polygon fill="#ababb7" points="59.903 47.501 59.921 51.348 80.447 39.498 80.429 35.651" class="colorabaeb7 svgShape"/><polygon fill="#6d6d72" points="49.385 41.389 59.903 47.501 80.429 35.651 69.911 29.538" class="color6d6f72 svgShape"/></g><g class="color000000 svgShape"><polygon fill="#ababb7" points="45.33 36.008 49.403 41.407 59.921 47.52 58.596 43.717" class="colorabaeb7 svgShape"/><polygon fill="#9b9ba5" points="58.596 43.717 59.921 47.52 80.447 35.669 84.484 28.77" class="color9b9ea5 svgShape"/><polygon fill="#bbbbc6" points="45.33 36.008 58.596 43.717 84.484 28.77 71.218 21.061" class="colorbbbec6 svgShape"/></g><g class="color000000 svgShape"><polygon fill="#815a30" points="66.908 14.821 65.548 14.031 65.516 4.268 66.876 5.058" class="color813030 svgShape" enable-background="new"/><path fill="#e6e9e7" d="M66.970993,2.7064469l-0.0682526,31.2287941
									c-0.0009537,0.337616-0.3222504,0.6755981-0.9634399,0.8536644
									c-0.3859634,0.1071854-0.8001022,0.1136131-1.1893387,0.019001
									c-0.6940384-0.168705-1.0426559-0.5243416-1.0416489-0.8787956L63.7765541,2.700325
									c-0.0009995,0.3544557,0.3476219,0.7100973,1.0416679,0.878798
									c0.3892365,0.0946109,0.8033829,0.0881827,1.1893463-0.0190094
									C66.6487427,3.3820419,66.9700317,3.0440693,66.970993,2.7064469z" class="colore9e8e6 svgShape"/><path fill="#53d86a" d="M66.5017014,2.0527737c0.7586212,0.4379904,0.5971832,1.1989346-0.4820938,1.5039663
									c-0.4020767,0.1136374-0.834938,0.11709-1.2395477,0.0128276C63.6606522,3.2811105,63.474041,2.497318,64.2389526,2.052799
									C64.8646317,1.6891954,65.8757401,1.6913759,66.5017014,2.0527737z" class="colorc4c2c0 svgShape"/></g><g class="color000000 svgShape"><path fill="#fff" d="M73.378891,88.4122467c0.0017776-0.00103,0.0035934-0.0020523,0.0054626-0.0031052
							c0.0573578-0.0306854,0.1225662-0.0447006,0.1779251-0.027771c0.045433,0.0145187,0.0887527,0.0343399,0.1292419,0.0582199
							c0.0177689,0.0109253,0.0291824,0.0344925,0.0384674,0.0576706c0.0164261,0.0418472,0.0073471,0.0919189-0.0243912,0.1534119
							c-0.0310364,0.0586853-0.0578156,0.1197739-0.0824661,0.1804504
							c-0.1986008,0.4903641-0.4419556,0.9568253-0.7812119,1.3686523
							c-0.0784531,0.0950089-0.1647415,0.1774139-0.2488937,0.2643051c-0.0094833,0.0098572-0.020607,0.0178299-0.0319519,0.0243759
							c-0.0097885,0.0056534-0.0197372,0.0102463-0.028923,0.0140305c-0.0255051,0.0098343-0.029808-0.0056076-0.0114594-0.0382004
							c0.2243881-0.4033585,0.4111481-0.8176041,0.5730743-1.2370758c0.0704117-0.1808014,0.1259232-0.3628006,0.1835632-0.5444107
							c0.0161667-0.0500793,0.0202866-0.1005402,0.0236969-0.147316C73.3056641,88.4693604,73.314476,88.44944,73.378891,88.4122467
							z" class="colorffffff svgShape"/><path fill="#fff" d="M76.6517487 85.6865768c.0185089.0251694.0100861.0561142-.0259933.0875397-.0516434.0461044-.1054077.0926437-.1585083.124115-.1847839.1123962-.3688812.217865-.5536728.3269882-.2386093.140213-.477211.2787857-.7158127.4230652-.1387634.0841827-.2767944.1777344-.4190826.2696533.0000381.0146561.0000763.0260468.0001068.0382538-.0014191.2477493-.0014343.4954758-.004982.7444534-.0047302.3311462-.0115967.6627274-.0198669.9959183-.0050812.2115479-.0115662.423912-.0208893.6379166-.0039825.097641-.0129089.1989594-.0268021.3023224-.0118027.0875092-.0477219.1791382-.0942764.2679596-.0151596.0293961-.032074.0494461-.0500259.0598145-.0146179.0084381-.0299225.0104599-.0455246.0059433-.0198746-.0056381-.0390472-.0141296-.0532761-.0287323-.1159363-.1196823-.1837921-.2891235-.2014313-.5063095-.0058823-.0723877.0123138-.1611252.0227127-.2437515.0346909-.2734528.0594482-.5436554.0643921-.8032074.0068436-.3380661.0101471-.6732712.0148621-1.0101395.0005493-.0581665-.0003281-.115509-.0005035-.1781693-.0431824.0298157-.0863571.0588303-.1288223.0890579-.3050461.2176743-.6050644.4617844-.9021835.7229691-.0311356.0269241-.062973.0542831-.0933838.0824356-.0363007.0338898-.0726318.0608749-.1088943.0818176-.0414734.023941-.0828552.0399857-.1240616.0494308-.126152.0296402-.2473984.0417786-.3594894.0266266-.0212936-.0039978-.0425797-.0088348-.0610504-.0185394-.0440292-.021843-.0371017-.0804367.0201874-.1355133.0431366-.042038.0898361-.0804062.1358566-.1085892.250618-.1536713.5012436-.3073273.751091-.485817.1366043-.0967941.2724686-.2021179.4090652-.3013611.1479187-.1065826.2958527-.2099228.4444885-.3153.0042496-.002449.009201-.006134.0219421-.0159149-.0088959-.1334076-.0163574-.2660294-.0280685-.3945313-.0109787-.1191635-.0325699-.2305603-.071846-.3260651-.0199966-.0471268-.0435257-.0913925-.0663376-.1360931l-.0198593.0016937c-.0523911.0318832-.1047745.0653763-.1564636.0960312-.0195847.0115738-.0391769.0229721-.0589218.0343781-.0394897.0227966-.0796204.0456085-.1216278.0698624-.0027771.0203552-.0034103.0468063-.0111389.0740814-.0147476.0508957-.0287857.1021881-.0506287.1522751-.0133896.0320663-.0316162.0544434-.0509338.0655899-.0162582.0093918-.0332947.010849-.0488739.0034332-.0163269-.0076752-.029129-.0214615-.0405273-.036087-.0469818-.0625153-.0642548-.1519547-.0787048-.2462921-.047699-.3147354-.0975266-.6282501-.1515961-.9376678-.0209045-.119133-.0531311-.2309036-.1313095-.2909088-.0312805-.0243149-.0653763-.0445557-.1023026-.0590973-.0347824-.0133209-.0342484-.0739288.0074539-.1240921.0113068-.0130539.0247498-.0256958.0374908-.0338745.0065231-.0039444.0130386-.0077667.0195236-.0115204.1188736-.0686264.2318573-.1051178.3347931-.0903625.0066299.0008621.0158157-.0026932.0246658-.0078049.1643066-.126564.3185654-.2482071.4728394-.3666153.2575989-.1968002.5158997-.3915863.7734985-.5875702.1188965-.0898209.2384949-.1784439.3573761-.2723465.0502396-.0395966.0983124-.0950699.1492615-.1367111.0137787-.0113373.0284958-.0216675.0431366-.0301208.0169067-.009758.0337219-.0170364.048912-.0205688.1715164-.0387192.3310776-.0428314.4674149.0169907.0134888.006073.0262756.0125504.038353.0210571.0532913.0352402.0612335.0852585.0189667.1846237-.0317078.0737305-.0726395.1454391-.1100235.2175598-.1086273.2093887-.1888733.4211655-.2528.637352-.0646286.2165985-.1327972.4352417-.2208252.6563721.0163269.0068893.0340805.0121155.0497055.0218353.0142136.0089111.0277176.0206757.0369797.0365067.0213852.0373688.0016556.0829773-.0464859.1124115-.0623016.0376053-.1253204.0723572-.188324.1152496-.126709.0853806-.2526932.174408-.3793869.2622375-.0693665.0473862-.1380234.0951614-.2073898.143364-.0148697.0102234-.0297318.0212326-.0452957.0326767.0382996.0031281.0765991.0022202.1113663.0106659.0638733.015274.0938187.0689011.0820465.1685867-.0034637.0297241-.004097.0586014-.0054321.0878906-.0065308.1960983-.0123596.3917923-.0181885.5874786.0772018-.0364304.1529617-.0809937.2279816-.1348953.1889725-.1343765.377243-.2683182.5654984-.4104233.1372833-.103714.274559-.2147369.4096832-.3318787.0360718-.0312805.0711975-.0568466.1056213-.0767212.0540161-.0311813.1063004-.048378.1578369-.0517578.1191254-.0076523.2340393-.0014648.3306198.0454559C76.6069031 85.6277084 76.6303864 85.6565323 76.6517487 85.6865768zM74.5121384 85.4607086c.1733932-.1278076.3467636-.2637634.5201492-.3956528.0162735-.0126419.0240479-.0236511.0282364-.045639.0300598-.1550751.0650711-.3113785.0915833-.4652252.0383911-.2177658.0725327-.4346848.1045456-.6503754.0153198-.0993042-.0138474-.1305466-.0932007-.1010284-.0433731.0154266-.0886765.0359421-.1333237.0617218-.0158691.0091629-.031662.0189896-.0472565.0294952-.1422806.0968246-.2831192.2001343-.4246674.3038483-.2951202.2168579-.588089.4454956-.8702469.733078.0498886.3354645.0990601.6697311.1489487 1.0052032.0297318-.0196228.0637131-.0408783.0976868-.0653763C74.1271133 85.7351532 74.3203506 85.601593 74.5121384 85.4607086M72.3579559 84.685997c.0114059-.0065842.0239944-.0122604.037796-.0170898.0878525-.0303421.1616364-.0224228.2290802.0022125.0482788.0185776.0972672.0375519.1377792.0679474.0788879.0587769.0755768.1405411.0100555.2940903-.0718689.1678085-.1408844.3380432-.2028198.5066376-.1168213.317627-.225853.6348419-.3419724.9520645-.0562973.1539383-.1203995.3074646-.1809616.4597931.0369492.0267487.0753174.0510406.1094513.081871.0355453.0316315.0661469.0693817.0988693.1042709.0490875.05233.0642014.1299973.0432281.2390823-.0545044.2840805-.0566101.5436325-.0601273.8040009-.0053711.3575974-.0050735.7119217-.0097351 1.0691147-.0034027.3002243-.008934.6016769-.0137482.9035339-.0024261.1456451-.0048447.2912903-.0086899.4377518-.0031815.1265182-.0318756.2620621-.0655365.3988571-.0161285.0630951-.0315475.1266022-.0547791.1889114-.0193481.0532913-.0441208.0885239-.0712433.1041794-.0221786.0128098-.0459442.0125351-.0695953-.0016861-.0220261-.0133667-.0440598-.0307999-.0561905-.0571976-.0542221-.1129379-.1056137-.2291489-.1555862-.3469696-.0328445-.0772018-.0125809-.1842499.0062637-.2904739.0299988-.1754227.0692062-.3545303.0892944-.525032.0283737-.2453842.0510864-.4899216.0624695-.7271347.0167542-.3446045.0242996-.6847153.0290146-1.0231934.0042572-.2509995.0000076-.4971085-.0049362-.7420044-.0009537-.0833893-.0153427-.1581955-.0233688-.2366867-.0662994.1303711-.1248016.2578583-.1832962.3861618-.2473907.54216-.5423813 1.0571823-.8956223 1.5373917-.0522842.0709229-.107399.1410599-.1710815.192482-.0162811.0134811-.0332718.0232925-.0601654.0412598.0162048-.0362396.0253448-.0627213.0380402-.0871582.050087-.0965652.1015854-.1923065.1509628-.2876205.2384109-.4587402.4526901-.9247284.6563187-1.3927078.1796722-.4142151.3423233-.829216.4836884-1.2465897.102684-.3037567.203949-.6075211.2725983-.9087372.0560303-.2483063.0901108-.4872131.0908813-.7133865C72.2740631 84.7733841 72.3014145 84.7186432 72.3579559 84.685997zM80.4977646 84.4334106c-.1403656.2692795-.1899796.5309906-.255188.7943878-.0189362.0761261-.0371628.1518402-.0546799.2247162.0305252.0125275.0617523.0189285.0859146.0359497.0156326.0121689.0270462.0349197.0299606.060936.0043411.030098-.0140152.0602646-.0423355.0766144-.2393265.1389694-.4685059.3495178-.703476.5218506-.0714798.052681-.1429749.0996628-.2201309.153183-.0035019.0150604-.0083847.0423355-.0175247.0704269-.0154724.0480347-.0316315.0989304-.0741043.1291504-.0028687.0020142-.0056763.0037842-.0084152.0053711-.0370407.0213852-.0619049.0059357-.0830994-.0144577-.0568924-.0567932-.0911636-.1364365-.1049347-.2401276-.0130615-.1049118-.039566-.1996307-.0604172-.2984161-.022995-.106514-.0431595-.2154922-.0704041-.3179398-.0279465-.1020279-.0714493-.1877289-.1637115-.2086258-.0106354-.0028305-.0226974-.0031891-.0326462-.0072403-.0113602-.0056686-.0290909-.0084457-.0305557-.0222855-.0036163-.0280609.0083313-.0634766.033783-.0920334.0127258-.0146866.0268707-.0277405.0410309-.0359116.0027161-.0015945.0054398-.0031662.0081558-.0047302.1026382-.0592575.2025375-.1016388.2965012-.1018829.0084305-.0000229.0194092-.0027161.0294647-.008522.2522659-.1802216.4949799-.3717041.7219162-.6265869.0501862-.0566788.0996704-.1153946.149147-.1749344.0306091-.0368805.0621109-.0643616.0946884-.0831604.0185699-.0107269.0374756-.0186157.0567703-.0238571.1048813-.0303955.2027359-.0371704.2984772-.0354156.0177383.0003738.0340576.0047913.0489731.0108566C80.5348282 84.2490234 80.5527802 84.3283005 80.4977646 84.4334106zM79.9710312 84.7578812c.0012589-.0452271-.0129013-.0528793-.0503693-.03125-.0009537.0005493-.0019226.0011292-.0029068.0017014-.0058136.0033569-.0116043.0066757-.0173569.0100021-.0201645.0116348-.0399857.0235672-.0597992.0394516-.0934067.0751038-.1867981.1526566-.2801971.2302094-.106842.0877762-.2129669.1775589-.3275833.2730713.0389786.2407227.0779648.4838867.1169586.7294769.007782-.0053101.0169907-.0098114.0261917-.0175476.0948105-.0775757.1896362-.1518707.2837296-.2330933.0672073-.0575562.1308517-.125267.1980515-.1852417.0240555-.021225.0360565-.0379333.0395203-.0692673.0207901-.170105.0451279-.3406296.0638046-.509491C79.9700623 84.914093 79.969841 84.8359833 79.9710312 84.7578812M84.4424438 83.9610291c.0390167.0018997.038414.0413818.0002518.0886765-.0332184.0403595-.0678558.0791016-.1039352.1113434-.2525482.2248535-.5072632.4354706-.7677383.6176453-.0786667.0549088-.1573563.1078949-.2361908.1534119-.0566406.0326996-.1133499.0615311-.1702194.0844803-.0949249.0376968-.1800156.0428314-.2587814.0271835-.1518555-.0304871-.2867889-.0952148-.4224243-.1578751-.0788269-.0367966-.1569519-.0756302-.2357864-.1140518-.2910309.4092331-.6205902.735611-.9608688 1.0371857-.169075.149765-.3395767.2962875-.5115128.4371414-.092926.0753555-.1871414.1431732-.2820206.1979446-.0474396.0273972-.0950394.0515137-.1427383.0717163-.0177078.0069733-.0354309.0106812-.0517349.01194-.0078049-.0003815-.0170441-.0080872-.0170746-.0170288-.0000153-.0073242.0126953-.0260696.0204773-.032196.0601349-.0518341.1202774-.1012115.1811295-.1510239.4301758-.3591843.8467712-.7569962 1.2333679-1.2287598.1024857-.1243591.1971283-.2604904.294632-.3917618.0105972-.0134354.0190659-.0289383.026123-.0395355-.0419159-.0254974-.0809937-.0518341-.1221924-.0753098-.1221771-.0688171-.2443619-.1384583-.3679504-.2048264-.122879-.0659561-.2626724-.0936356-.4186707-.0850525-.0262299.0020981-.0517654.0021896-.0758896-.0018387-.017746-.0035934-.0347824-.0108643-.0482941-.0226288-.0298538-.0267792-.0172424-.0788727.0294495-.1196899.0367889-.0318298.0750122-.0587769.1125259-.0845261.1373138-.0955734.2746353-.1878967.4112396-.2838745.2703781-.1895065.5364304-.4042435.7996063-.6344223.1195602-.1040649.2376938-.2130051.3536758-.3264389.0418549-.040657.0824661-.073082.1228409-.0963898.039444-.0227737.0786667-.0368423.1186066-.0413742.0659409-.0070953.1346893-.0223465.1978073-.0212936.0411453.0014954.079483.0176697.1107559.0411758.0412216.0299835.034996.0849075-.0066299.1619339-.010582.0191269-.0218811.0370789-.0331802.0550079-.0868607.1324539-.163063.2693405-.2236404.4151535-.1415939.3376312-.2973785.6728745-.4836655 1.0061722.0383072.0023117.0744858.0042648.1099472.0065994.4057617.0330276.85009-.0857849 1.301445-.2331009.1381683-.0455322.2784348-.0996323.4165955-.1467896C84.3764954 83.9640427 84.4119415 83.9582596 84.4424438 83.9610291zM82.2576065 84.2917862c.1079254-.2065582.1888885-.4171066.2584991-.6292419.0316391-.0965042.0576019-.1937943.0800323-.2898636.0168152-.0708313-.0087738-.0894852-.0654144-.0567856-.0346909.0208511-.0707932.045784-.1040421.0739288-.2299423.1922531-.4584732.3853149-.687706.5787888-.043869.0367355-.0870209.0746918-.1330109.1142578.2129974.0823975.4076309.1925049.640358.2300873L82.2576065 84.2917862M81.2752609 79.4730377c.1188736-.0661774.2301407-.0937424.3386154-.1066513.0177231-.0020981.0340424.0039749.0496597.0088196.0198746.0056381.030571.0239105.0292358.0540161-.0099792.2331238.0324173.4294891.0606689.6364822.015213.1134415.0318451.2260895.0442276.3411636.0058365.0585709-.0166626.1261673-.0547791.1905518-.0161743.0268707-.032692.0453796-.0487442.0546494-.0182648.0105438-.0359268.0091324-.0518265-.0055618-.0255966-.0243301-.0469666-.0560074-.0619583-.0929794-.0264206-.063797-.0464859-.1345139-.0693665-.2019882-.0042877-.0121841-.009285-.0231628-.0157089-.0390167-.0983353.0877457-.1952515.173851-.2907486.262413-.0721436.0661011-.1428757.1346359-.212883.2060318-.0269165.0270538-.053627.0479584-.0803833.0634079-.0224609.01297-.0449448.0220795-.0675812.0277176-.0949707.0238647-.1920471.053009-.2694397.0210953-.0198822-.0080948-.0376511-.0222549-.0504684-.040947-.0170898-.0227356-.0100479-.0422745.0225067-.0675888.0686417-.052681.1380005-.1008606.2059326-.1539383.1677094-.1326828.3354034-.268631.5031128-.4004974.0566101-.0440903.1139526-.0812683.1748199-.1245651-.0564041-.1336746-.0979767-.2881393-.1876297-.3912125-.0163651-.0190887-.0306091-.0410156-.0413208-.0657883C81.1749802 79.5917282 81.2088776 79.5113907 81.2752609 79.4730377z" class="colorffffff svgShape"/><path fill="#fff" d="M83.7184982 81.7638702c.0433121.0173721.0399246.0739288-.0131073.1273651-.0565796.0562973-.1167221.1081314-.1768875.1469345-.1245956.0809097-.2506409.1479797-.375946.2268448-.2229996.140976-.4459991.2827682-.6682739.4290237-.1890106.1246033-.3772888.2545013-.5648499.3864288-.1896896.1331482-.3786392.2772751-.5683365.4071579-.0580444.0400314-.0749664.0742493-.0854187.1405945-.0125504.0757065-.0343094.1558914-.0596161.2349014-.0166016.0523376-.0377502.0860138-.0605774.0991898-.020668.0119324-.0427094.0070877-.0640106-.0158539-.0241852-.0259857-.044136-.0592728-.0591354-.0962372-.0314102-.0731506-.0606995-.1483307-.0857468-.2275772-.0071564-.0219574-.003006-.0577545.0040054-.088707.0252075-.1123276.0638809-.2300262.0791779-.3390884.0229416-.1640091.0359573-.3255386.0418854-.4829788.0059204-.1639557-.0001907-.3209839-.0027771-.4800262-.0007935-.0321274-.0072632-.0610046-.0123291-.0979996-.0098801.0195389-.0162277.0313644-.0232849.0435944-.1192627.2090073-.2370987.4196548-.3592072.6270752-.0437622.0741425-.0996017.1406326-.1497498.2103271-.0168762.0236435-.0350876.0408325-.054184.051857-.0088882.0051346-.0179672.0089417-.0271988.0114212-.0233917.0061646-.0276794-.0068359-.0121613-.0377884.1925583-.3703308.351059-.7486954.5010452-1.1278458.0866089-.2195129.1604538-.4397964.2179871-.65802.0259628-.0989304.0278397-.1880188.029007-.2758789.0012894-.045578.007637-.058197.0458603-.0827179l.0113297-.0065384c.1098099-.0405884.2182312-.0738449.3069763-.0395126.068161.0266571.0677414.1304016.0049362.2391968-.0444641.0761795-.084671.1548157-.1255798.2330399-.0169296.0325851-.0310211.066803-.0500488.1087646.2944489-.2058563.5810699-.4194183.8676529-.6468201-.1099472-.0065994-.1591492-.1028976-.2182465-.1836624-.0427246-.0600891-.0797958-.1275101-.1189804-.1929092-.0171051-.0276031-.006546-.0565338.0309753-.0806274.00811-.0052795.0165024-.0105896.0248718-.015419.0149918-.0086594.0299225-.0157547.0431137-.0181274.0942764-.0177536.1892548-.0375519.2807159-.0455475.0914612-.0087967.1306534.0565796.1309738.1680603.0000839.030899-.0012436.0626373-.0046997.09478-.0082932.0765076-.0230789.1151962-.0746155.1963043.0283051-.022049.0509491-.0392151.0728836-.0567627.022644-.017952.0452957-.0350952.0672226-.0534668.1768875-.1461411.3544846-.2918701.5313721-.4388046.0166931-.0140381.0332108-.0252533.0495987-.0347137.0384674-.0222092.0762329-.0346832.1139908-.0507813.0828705-.0356216.162941-.0606461.2374191-.0580215.0226898.0007629.0517502-.0054321.0511475.0332108.0001068.0374298-.0231857.075325-.0500641.1014328-.057991.0563202-.1174088.1109848-.1775589.1587524-.1365662.1090012-.2745667.2139435-.4125595.3188782-.1096954.0828781-.2193909.1641388-.3290787.2470322-.009201.0069504-.0240402.0277405-.0240173.0366745-.0081635.1196289-.0142136.2388458-.0216599.3621292.0919876-.073494.1790161-.1449203.2660522-.2139206.0700531-.0559158.1400909-.1167374.2108841-.1616745.0083466-.005394.0167389-.0105057.0251617-.0153656.0515671-.0297775.1042938-.0502243.1554489-.0685501.0531387-.0184555.1063004-.0287628.1566391-.0333786.0475082-.0046158.0483398.040535.0016785.0911026-.0452499.0489426-.0947723.0938416-.1436005.1309891-.2080536.1592484-.4168243.314827-.6248932.4716187-.0509491.0383759-.0516586.0396042-.0543137.1014481-.0039825.0968246-.006546.1936493-.0105133.2970047.0537872-.0400314.1040344-.0771942.1542816-.1159744.1103897-.0857315.2200546-.1775894.3311844-.2555847.0121078-.0084076.0243301-.0160828.0366135-.0231781.0516129-.0297928.104393-.0492096.1553268-.0680771.050293-.0192642.0985031-.0251007.1467056-.0325546.0205536-.0037231.0439606-.0033798.0433426.0287628-.000618.0337601-.0253601.0619049-.047287.0810928-.0615463.0526428-.1238098.1048813-.1860886.1522446-.1415405.106987-.2837906.211113-.4260406.3168945-.0615768.0453186-.1238556.0902328-.1861343.136795-.007782.0061111-.0212021.0252686-.0211868.0325928-.003212.1175842-.004303.2339401-.0053864.3502731l.0035706.009346c.0920105-.0669632.1840134-.1331253.2767334-.2005157.1663208-.1212921.3333435-.2429657.4996643-.3642654.0261917-.0191879.0530777-.0396194.0785446-.0616379.0233231-.0200958.0462952-.036499.0691223-.049675.0332718-.0192108.0662079-.031601.0994186-.038681.0808029-.0164948.1594925-.0285263.2318649-.0173187C83.6858521 81.7558212 83.7028809 81.7582092 83.7184982 81.7638702zM81.1967163 81.8173218c.033432.0344849.0682755.0665207.0995789.1030502.0291748.0353241.0611877.069809.0309601.1646805.2611771-.1866455.5145569-.3671799.7700577-.549736-.0053177-.1248627-.009903-.2428207-.015213-.3636398-.0066071.0038147-.0113297.0061874-.015419.0085449-.0020447.0011826-.0039291.0023575-.0058212.0037155-.1295166.0935287-.2597427.1890945-.3899765.281395-.0661774.0467606-.1323547.0927048-.1983795.1308289-.0660248.0381165-.131897.0684128-.1974564.083847-.0011368.0002975-.0023956.0008698-.0037384.0016479-.0077972.0045013-.0182114.0161743-.0224228.0248642C81.2298355 81.7427826 81.2136307 81.7806778 81.1967163 81.8173218M82.101265 82.4278412c.0013275-.0317383.0033646-.0647049.0053864-.1017303-.0396423.0269775-.0750275.0514755-.1104202.0759811-.1613846.1119156-.3227539.2271042-.4848557.33535-.0291595.0194473-.0584488.0371246-.0878448.0541-.0440979.0254593-.0884476.0493164-.1330643.0750809.0003738.1309814.0007629.2692947.0011597.4092255l.0056686-.0024567c.2555161-.1776733.5117493-.3565598.7672653-.5342331.0212326-.0147171.0233154-.0297775.0239792-.0489044C82.0925446 82.6032028 82.0972595 82.5149078 82.101265 82.4278412M81.2856903 82.6819382c.2781601-.1964569.5478287-.3863678.8174973-.5771027-.000351-.1228638-.000679-.2383804-.0010071-.3547363-.2301025.1680908-.4580841.3410339-.6941223.4773102-.0369339.0213242-.0740585.0417633-.1114273.0611267C81.2927399 82.4179153 81.2895584 82.5460434 81.2856903 82.6819382M79.9501572 83.5174255c.0291138-.0168152.0583725-.030365.0881577-.0419693.0836029-.0319748.1671906-.0671921.2444839-.0678024.0149002.000351.0304947-.0004959.044693.0027161.0383224.0080261.039856.0495148-.0004272.0996552-.0332184.0411987-.0699921.0795364-.1074829.1117783-.1443329.1232529-.2893677.246933-.4351273.366127-.1408081.1146927-.2830429.2253571-.4245682.3371964-.026886.0204315-.0545044.036377-.0821152.0547485-.0029449.0017471-.0059052.0035019-.0088425.0051956-.0943451.0544739-.1821365.0797958-.264679.0744858-.0191498-.0011673-.0376053-.0051651-.0532303-.0132599-.0277023-.0141602-.0256882-.0552673.0089493-.0948105.0332336-.0379257.0707092-.0750656.1068115-.1007919.2625885-.1850052.5165634-.4082336.7669449-.6457062C79.8728943 83.567955 79.9114075 83.5397949 79.9501572 83.5174255zM79.958313 82.6900711c.0168686-.0097427.0339432-.0180511.0514679-.0252914.0906754-.0360641.1827545-.0770035.2657394-.074379.0184402.0007629.03759.0002975.0546188.0043259.0305176.0068283.0334473.0385437.0030746.0821609-.0247269.0354538-.0544052.0721512-.0848236.0994873-.0884247.0795898-.1782837.1542892-.2674255.2310181-.1818237.1554871-.3629379.3122025-.5447693.465271-.0544815.0461273-.1103973.0832977-.1656036.124939-.0991364.0539932-.1905518.0782471-.2770844.0752411-.0184402-.0007553-.0368958-.0064163-.0503998-.0173645-.0220337-.0166168-.0171738-.0536423.0132294-.0866699.0353546-.0375443.0735474-.0734329.1110535-.1016083.2703552-.1976547.5306702-.4351578.7845459-.693367C79.8879395 82.7375565 79.9226608 82.7106552 79.958313 82.6900711zM79.3110657 80.9874802c.0407181-.0208817.0761337-.0364456.1094437-.0434494.1495667-.0293198.2892761-.0284729.414917.0098038.0830536.0245819.1307602.094017.1565704.1923904.0272369.0991898.0353546.2118378.0243607.3371658-.0089493.0940094-.0321808.1562958-.0978394.2610397.1224136-.0975647.244133-.1898575.3637085-.290657.0425339-.0360947.0842438-.0657501.1252441-.0894165.089241-.0515289.1750946-.0747147.2586823-.0743866.0340424.0007248.0631561.0140686.093689.0249634.0099335.0040283.017067.0162277.0227661.0275955.0235443.0467148.0094833.091507-.0464249.1351852-.0686417.0534897-.1394272.0984344-.2087784.1515121-.2328186.1800461-.4677887.3532028-.6977386.544632-.3028183.253067-.6020584.5203629-.9027328.7819824-.0785217.0681458-.1563187.1448517-.2362823.2064972-.0134583.0103989-.0273361.0195618-.0413895.0276794-.0340195.0196381-.0690842.0330887-.1016769.0426865-.1084213.0308151-.2175522.0604172-.3098221.0346375-.0312271-.0088501-.0617676-.0238266-.0845337-.0473557-.0334244-.0328522-.0221939-.0735626.0330048-.1176529.0721664-.0587997.146492-.1106644.2193832-.1666031.2561722-.1968002.5130615-.3931961.7692184-.5940628.2023849-.1584015.4047546-.3216858.6064224-.4829559.0120239-.0093689.0240555-.0203857.0353775-.0293732-.0559387.0322952-.0921555.0148926-.124855-.0110397-.0874329-.0717697-.1522522-.1720657-.2107162-.2792816-.0641632-.1177902-.1240845-.2413025-.1854172-.3623581-.0121231-.0223389-.0270691-.0422211-.0363617-.0678329C79.2428131 81.0643311 79.2636032 81.0148773 79.3110657 80.9874802zM82.5105362 78.4770889c.0183182-.0105743.0365601-.0174408.0546341-.0209579.1084518-.0226822.2035141-.0107422.2830811.0378647.0483093.0291443.0491333.0685959.0210114.1573639-.0639648.1999207-.1251068.399025-.1876602.5989304-.0006943.0036697-.0006866.0069199-.0020752.0166931.1888962-.1636581.3749771-.3191757.5581894-.4844437.0414276-.0372925.081192-.0673447.1205521-.090065.0446396-.0257797.0887833-.0421295.1343689-.0489731.0723038-.0115967.1410904-.0154495.2000122.0075836.0702972.0278778.0633774.0897293-.0243378.1697083-.0728607.0665131-.1485825.1224594-.2228928.1784058-.1231461.0914536-.246994.1825256-.3701553.2699203-.0683594.0485077-.1368942.0932541-.2053757.1327896-.0860825.0496979-.1720963.0911789-.2577209.1215363-.0047531.001709-.0089035.0035324-.0125961.005661-.0133743.0077209-.0206833.0193253-.0283966.0416641-.0597916.1754913-.1231232.3497772-.2155533.5196838-.019043.0346298-.0388107.0680389-.0585709.1014481-.0076752.012764-.0173721.0263596-.0269012.031868-.0053787.0030975-.0106964.0036316-.015564-.0000153-.0078125-.0052567-.0114136-.0243835-.0093307-.0402374.0348816-.2051239.0725937-.4102707.1067657-.6149902.0404434-.2425537.0716782-.482254.0731659-.708046.0005112-.0720062-.0131531-.1358337-.0225525-.2013016-.0065155-.0459518.0110703-.0960312.0527954-.1388626C82.4738159 78.5019608 82.492218 78.4876709 82.5105362 78.4770889zM75.4164963 87.1705551c.0040741-.0023499.0084839-.0045853.0132217-.0067062.1083755-.0470734.2069244-.0558929.3026733-.0549545.1191483.0004959.2397003-.0030975.3532181.0104141.1433029.0166779.2718048.0647354.3791428.15271.1009445.082695.1389389.2278137.1486511.4006729.0037613.0736313-.0080719.1529999-.03479.2376785-.0233307.0764313-.0652924.1344376-.1139755.1625443-.0231476.0133667-.047821.0199814-.0727386.0186081-.098587-.0050201-.1767273-.0503693-.2421646-.116066-.1187744-.1172333-.2318878-.2434311-.3499603-.3618927-.0839233-.0843811-.1713791-.1642685-.2588348-.2433624-.0277328-.0247345-.0632248-.0368271-.0923615-.0583191-.0227509-.0178375-.0454941-.0364914-.060463-.0637054C75.3722382 87.216713 75.3833694 87.189682 75.4164963 87.1705551zM88.8645859 79.4715805c.0017776-.00103.0035934-.0020523.0054626-.0031128.0573578-.0306854.1225662-.0447006.1779251-.0277634.045433.0145111.0887527.0343323.1292419.0582199.0184708.0105133.0291748.0344849.0384674.057663.0164261.0418472.0073471.0919189-.0243912.1534195-.0310364.0586853-.0578156.1197662-.0824661.1804504-.1986084.4903641-.4419556.9568176-.7812119 1.3686447-.0784531.0950165-.1647415.1774139-.2488937.2643127-.0094833.0098495-.020607.0178223-.0319519.0243683-.0097885.0056534-.0197372.0102539-.0289307.0140305-.0254974.0098343-.0298004-.0056076-.0114517-.0381927.2243881-.4033585.4111481-.8176117.5730743-1.2370758.0704117-.180809.1259232-.3628082.1835632-.5444183.0161667-.0500793.0202789-.1005325.0236969-.147316C88.7913589 79.5286865 88.8001709 79.5087662 88.8645859 79.4715805zM87.8440552 75.7450943c.0114899-.0066299.0241852-.0123672.0381012-.0172653.0871506-.0299377.1609268-.0220184.2283707.0026245.0482788.0185699.0972672.0375519.1377792.0679474.0788879.0587769.0755768.1405334.0100555.2940903-.0718689.1678085-.1408844.3380432-.2028198.5066299-.1168213.3176346-.225853.6348495-.3419724.9520645-.0563049.1539383-.1203995.3074722-.1802521.4593887.0362396.027153.0746078.0514526.1087418.082283.035553.0316238.0661469.0693741.0988693.1042709.0490875.0523224.0642014.1299896.0432358.2390747-.054512.2840881-.0566177.5436325-.0601349.8040009-.0053711.3575974-.0057831.7123337-.0097351 1.0691147-.0034027.3002319-.008934.6016769-.0137482.9035416-.0024261.1456375-.0048447.2912827-.0086899.4377441-.0031891.1265259-.0318832.2620697-.0655365.3988571-.015419.0626907-.0315475.1266098-.0547791.1889191-.0193481.0532837-.0441208.0885239-.0712433.1041794-.0221786.0128098-.0459366.0125275-.0695953-.0016861-.0220261-.0133743-.0440598-.0307999-.0561905-.0572052-.0542221-.1129379-.1056137-.2291489-.1555939-.3469696-.0328369-.0772018-.0125732-.1842422.0062714-.2904663.0299988-.1754303.0692062-.3545303.0892944-.525032.0283737-.2453842.0510864-.4899292.0624695-.7271423.0167542-.3446045.0242996-.6847153.0290146-1.0231857.0042572-.2509995.0000153-.4971161-.0049362-.7420044-.0009537-.0833893-.0153503-.1582031-.0233688-.2366867-.0662994.1303711-.124794.2578506-.1832962.3861542-.2473984.5421677-.5423889 1.0571823-.8956299 1.5373917-.0522766.0709305-.1073914.1410599-.1710739.192482-.0162811.0134888-.0332718.0233002-.060173.0412598.0162125-.0362396.0253525-.0627136.0380554-.0871582.0500793-.0965576.1015778-.1923065.1509476-.2876129.2384109-.4587479.4526901-.924736.6563263-1.3927078.1796722-.4142227.3423233-.8292236.4836884-1.2465973.102684-.3037567.203949-.6075134.2725983-.9087372.0560303-.2483063.0901108-.4872055.0908813-.7133865C87.7597656 75.8327103 87.7871094 75.777977 87.8440552 75.7450943zM90.9021912 78.2298889c.0040741-.0023575.0084839-.0045929.0132217-.0067062.1083755-.0470734.2069244-.0558929.3026733-.0549545.1191483.0004883.2397003-.0031052.3532104.0104141.1433105.0166702.272522.0643234.3791504.15271.1009445.082695.1389389.2278137.1486511.4006729.0037613.0736313-.0080719.1529922-.0347824.2376709-.0233383.0764313-.0653.1344376-.1139832.1625519-.0231476.0133591-.047821.0199814-.0727386.0186005-.098587-.0050201-.1767273-.0503616-.2421646-.116066-.1187668-.1172333-.2318954-.2434311-.3499603-.3618851-.0839157-.0843887-.1713791-.1642761-.2588348-.2433701-.0277252-.0247345-.0632248-.0368271-.0923615-.0583115-.0227509-.0178375-.0454941-.036499-.0604706-.0637054C90.857933 78.2760391 90.8690643 78.2490158 90.9021912 78.2298889z" class="colorffffff svgShape"/><path fill="#fff" d="M92.1374435 76.745903c.0185089.025177.0100861.0561218-.0259933.0875397-.0516434.0461121-.1054077.0926514-.1585083.1241226-.1847839.1123886-.3688812.2178574-.5536728.3269806-.2386093.140213-.4772186.2787933-.7158127.4230652-.1387634.0841827-.2767944.1777344-.4190826.2696609.0000381.0146561.0000763.0260391.0001068.0382462-.0014191.2477493-.0014343.4954834-.004982.7444611-.0047302.3311462-.0115967.6627197-.0198669.9959106-.0050735.2115555-.0115662.423912-.0201797.6375122-.0046844.0980453-.0136185.1993637-.0275116.3027344-.0118103.0875015-.0477142.1791306-.0942764.267952-.0151596.0294037-.0318604.049324-.049736.0596466-.0145493.0084-.029892.0104446-.0458145.0061111-.0198746-.0056381-.0390472-.0141296-.0532761-.0287323-.1152267-.1200943-.1837921-.2891235-.2014313-.5063095-.0058823-.0723801.0123062-.1611176.0227127-.2437439.0346909-.2734528.0594482-.5436554.0643921-.8032074.0068436-.3380661.0101471-.6732788.0148621-1.0101395.0005493-.0581665-.0003281-.1155167-.0005035-.1781769-.0431747.0298157-.0863571.0588379-.1288223.0890579-.3050537.2176819-.6050568.4617844-.9021912.7229767-.0311279.0269241-.0629654.0542831-.0933762.082428-.0363007.0338898-.0726318.0608826-.108902.0818176-.0414581.023941-.0828476.0399857-.124054.0494308-.126152.0296402-.2473984.0417862-.3594894.0266342-.0212936-.0040054-.0425873-.0088425-.0610504-.0185394-.0440292-.021843-.0371017-.0804443.0201874-.1355133.0431366-.0420456.0898438-.0804138.1358566-.1085892.2506256-.1536789.5012436-.3073273.751091-.485817.1366043-.0967941.2724686-.2021255.4090652-.3013687.1479263-.1065826.2958527-.2099152.4444885-.3152924.0042496-.0024567.009201-.006134.0219345-.0159225-.0088806-.1334076-.0163498-.2660217-.0280609-.3945313-.0109787-.1191635-.0318604-.2309647-.071846-.3260574-.0199966-.0471344-.0435257-.0914001-.0663452-.1361008l-.0198517.0016937c-.0523911.0318832-.1047821.0653839-.1564636.0960388-.0195847.0115738-.0391769.0229721-.0589218.0343704-.0394974.0228043-.0796204.0456161-.1216278.06987-.0027771.0203476-.0034103.0467987-.0111389.0740738-.0147476.0508957-.0287857.1021957-.0506287.1522751-.0133896.032074-.0316162.0544434-.0509338.0655975-.0162582.0093842-.0332947.0108414-.0488739.0034332-.015625-.0080872-.0291367-.0214615-.0405273-.036087-.0469818-.0625153-.0642548-.1519547-.0787048-.2462997-.0477066-.3147278-.0975266-.6282425-.1515884-.9376678-.0209122-.1191254-.0531387-.2309036-.1313248-.2909012-.0312729-.0243225-.0653687-.0445557-.1022949-.0590973-.0347824-.0133209-.0342484-.0739365.0074539-.1240997.0113068-.0130463.0247498-.0256958.0374908-.0338669.0065231-.0039444.013031-.0077744.0195236-.0115204.118866-.0686264.2318573-.1051178.3347855-.0903625.0066376.0008545.0158234-.0027008.0246735-.0078125.1643066-.126564.3185654-.2482071.472847-.3666153.2575912-.1968002.515892-.3915863.7734909-.5875702.1195984-.0902252.2384949-.1784363.3573761-.2723389.0502396-.0395966.0983124-.0950699.1492538-.1367111.0137939-.0113449.0285034-.0216751.0431442-.0301285.0169067-.009758.0337143-.0170288.048912-.0205612.1715164-.0387192.3310776-.0428391.4674149.0169907.0134888.006073.0262756.0125504.038353.0210495.0532913.0352478.0612335.0852585.0189667.1846237-.0317078.0737305-.0726395.1454391-.1100235.2175598-.1086197.2093887-.1888657.4211655-.2527924.6373596-.0646362.2165985-.1328125.4352417-.2208328.6563644.0163269.0068893.0340729.0121231.0497055.021843.0142136.0089035.0277176.020668.0369797.036499.0213852.0373764.0016556.0829849-.0464859.1124191-.0623016.0376053-.1253204.0723495-.1876144.1148376-.1274185.0857849-.2534027.1748199-.3800964.2626419-.0693741.0473938-.1380234.0951691-.2073975.1433716-.0148621.0102234-.0297241.0212326-.0452957.0326767.0383148.0031281.0766068.0022202.1113739.0106583.0638809.015274.0945206.0684967.0820389.1685944-.0034561.0297165-.0040894.0586014-.0054245.0878906-.0058289.1956863-.0123596.3917847-.0181885.5874786.0771942-.036438.1529617-.0809937.2279816-.1348953.1889801-.1343765.3779526-.2687302.5654907-.4104309.137291-.103714.2745667-.2147369.4096909-.3318787.0360718-.0312805.0711975-.0568466.1056213-.0767136.0540085-.031189.1063004-.048378.1578369-.0517578.1191254-.0076523.2340393-.0014648.3313293.0450439C92.092598 76.6870422 92.1160812 76.7158585 92.1374435 76.745903zM89.9978333 76.5200424c.1741104-.1282196.3467712-.2637634.5201416-.3956528.0162811-.0126495.0240555-.0236588.028244-.045639.0300522-.1550751.0650711-.3113785.0915833-.4652328.0383911-.2177582.0725327-.4346848.104538-.6503754.0153275-.0993042-.0138397-.1305466-.0931854-.1010284-.0433807.0154266-.0886841.0359497-.1333313.0617218-.0158691.0091705-.031662.0189896-.0472565.0295029-.1422806.096817-.2831192.2001266-.4239578.3034363-.2958298.2172699-.5887985.4459-.8709564.7334824.0498886.3354645.0990601.6697311.1489487 1.0052032.0297318-.0196152.0637131-.0408707.0976868-.0653763C89.6128082 76.794487 89.8060379 76.6609268 89.9978333 76.5200424M100.0145187 74.9704819c.0390167.0019073.038414.0413818.0002518.0886841-.0332184.0403519-.0678558.0791016-.1039352.1113358-.2525482.2248611-.5072632.4354782-.7677383.6176529-.0786667.0549011-.1573486.1078873-.2361832.1534042-.0566483.0327072-.1133575.0615387-.1702271.0844879-.0949249.0376968-.1800156.0428314-.2587814.0271759-.1518555-.0304794-.2867889-.0952072-.4224243-.1578751-.0788269-.0367889-.1569519-.0756226-.2357788-.1140518-.2910309.4092331-.6205978.7356186-.9608765 1.0371933-.169075.149765-.3395767.2962875-.5115128.4371338-.0929184.0753555-.1874619.1433563-.2823334.1981354-.0474472.0273895-.0949554.0514603-.1424255.0715256-.0177155.0069809-.0354309.0106888-.0517349.01194-.0078049-.0003738-.0170441-.0080795-.017067-.0170212-.0000229-.0073242.0126877-.0260696.0204697-.0322037.0601349-.0518265.1202774-.1012115.1804199-.1506119.4308929-.3595963.8474808-.7574005 1.2340851-1.2291718.102478-.1243591.1971283-.2604828.2946243-.3917618.0106049-.0134354.0190659-.0289383.0261307-.0395355-.0419159-.0254898-.0810013-.0518265-.1222-.0753021-.1221771-.0688248-.2443542-.1384583-.3679504-.2048264-.122879-.0659637-.263382-.0932312-.4186707-.0850601-.0262375.0021057-.0517654.0021896-.0758896-.0018311-.0177383-.0036011-.0347824-.0108643-.0482941-.0226364-.0298615-.0267715-.0172424-.0788651.0294495-.1196823.0367889-.0318298.0750122-.0587845.1125259-.0845337.1373138-.0955734.2746353-.1878967.4112473-.2838745.2703705-.1895065.5364304-.4042358.7995987-.6344147.1195602-.1040649.2376862-.2130051.3536758-.3264465.0418549-.0406494.0824661-.0730743.1228409-.0963821.039444-.0227737.0786667-.0368423.1186142-.0413818.0659332-.0070953.1346817-.0223389.1978073-.021286.0411301.0014954.0794754.017662.1107483.0411682.0412216.0299911.0349884.0849152-.0066299.1619339-.010582.0191345-.0218811.0370865-.0331802.0550156-.086853.1324463-.163063.2693329-.2236328.4151535-.1416016.3376312-.2973862.6728668-.4836655 1.0061646.0382996.0023193.0744781.0042648.1099396.0066071.4057617.03302.8500977-.0857925 1.301445-.2331085.1381683-.0455246.2784348-.0996246.4165955-.1467896C99.9485703 74.9735031 99.9840164 74.9677124 100.0145187 74.9704819zM97.829689 75.301239c.1079178-.2065506.1888809-.4171066.2584915-.6292419.0316391-.0964966.0576096-.1937866.0800247-.289856.0168228-.0708313-.0087585-.0894928-.0653992-.0567856-.0346985.0208435-.0707932.0457764-.1047592.0743332-.2292404.1918488-.4577637.3849106-.6869965.5783844-.043869.0367279-.0870209.0746918-.1330032.1142578.2129898.0823975.4076233.1925049.6403503.2300797L97.829689 75.301239M96.0698395 75.4428711c-.1410751.2696838-.1899796.5309906-.255188.7943878-.0189362.0761185-.0371552.1518326-.0546875.2247162.0305328.0125275.0617599.0189209.0859146.0359497.0156403.0121689.0263443.0353241.0299683.060936.0043335.030098-.0140152.0602646-.0423431.0766144-.2393112.1389618-.4684982.3495178-.7034683.5218506-.0714798.0526733-.1429749.0996552-.2201309.1531754-.0035019.0150681-.0083847.0423355-.0175247.0704269-.0154648.0480347-.0316391.0989304-.0741043.129158-.0028763.0020142-.0056763.0037842-.0084152.0053635-.0370407.0213852-.0619049.0059433-.0830917-.0144501-.0569-.0567932-.0911636-.1364441-.1049347-.2401352-.0130692-.1049118-.0395737-.1996307-.0604248-.2984161-.022995-.106514-.0431595-.2154846-.0704041-.3179398-.0279465-.1020203-.0714493-.1877213-.1637039-.2086258-.0106506-.0028305-.0227051-.0031815-.0326462-.0072403-.0113602-.005661-.0290985-.0084457-.0305557-.0222778-.0036316-.0280609.0076218-.0630722.0337753-.0920334.0127258-.0146866.0268707-.0277405.0410309-.0359192.0027237-.0015869.0054398-.0031586.0081558-.0047226.1026306-.0592575.2025375-.1016388.2965012-.1018906.0084305-.0000229.0194092-.0027161.0294647-.0085144.2522659-.1802216.4949799-.3717117.7219162-.6265945.0501938-.0566788.0996704-.1153946.1491394-.1749268.0306168-.0368881.0621262-.0643616.094696-.083168.0185699-.0107193.0374756-.0186081.056778-.0238495.1048737-.0303955.2027206-.0371704.2984695-.0354156.0177307.0003738.0340576.0047836.0489731.010849C96.1069031 75.2584763 96.1248627 75.3377533 96.0698395 75.4428711zM95.5431061 75.767334c.0012589-.0452271-.0128937-.0528793-.0503693-.0312424-.0009537.0005493-.001915.0011292-.0028992.0016937-.0058212.0033646-.0116119.0066833-.0173721.0100098-.0201569.0116348-.039978.0235672-.0597916.0394516-.0934067.0751038-.1867981.1526566-.280899.2306213-.1061325.0873566-.212265.1771469-.3268814.2726593.0389786.240715.0779648.4838791.1169586.7294769.007782-.0053101.0169907-.0098114.0261917-.0175552.0948105-.0775757.1896286-.1518631.2837296-.2330933.0665054-.0571442.1308441-.1252594.1980515-.1852417.0240555-.021225.0360641-.0379257.0395203-.0692596.0207977-.1701126.0451355-.3406296.063797-.509491C95.5421295 75.9235535 95.5419083 75.8454437 95.5431061 75.767334M98.0826111 69.4865494c.0183182-.0105743.0365601-.0174408.0546417-.0209579.1084366-.0226822.2035065-.0107422.2830734.0378647.048317.0291443.0491333.0685959.021019.1573563-.0639725.1999283-.1251068.3990326-.1876602.5989304-.0014114.0040894-.0006866.0069199-.0020828.0167007.1888885-.1636581.3749695-.3191757.5581894-.4844437.0414352-.0372925.081192-.0673447.1205521-.0900726.0446396-.0257721.0887833-.0421295.1343689-.0489731.0723038-.0115891.1403809-.0150375.2000198.0075912.0702896.0278778.0633698.0897217-.0243454.1697006-.0728607.0665207-.1485901.122467-.2236023.1788177-.1224365.0910492-.2462845.1821213-.3694382.2695084-.0686722.0486908-.1372528.0934601-.2056732.1329651-.0860138.0496597-.1717987.091011-.2574234.1213684-.0047531.0017014-.0089111.0035248-.0126038.005661-.0133743.0077209-.0206833.0193253-.0284042.0416641-.0597763.1754837-.1231155.3497772-.215538.5196838-.0190506.0346298-.0388107.0680389-.0585785.1014404-.0076752.012764-.0173721.0263672-.0269012.031868-.0053711.0031052-.0106888.0036316-.0155563-.0000153-.0078201-.0052567-.0121307-.0239639-.0093384-.0402374.0348816-.2051239.0725937-.4102707.1067657-.6149826.0404434-.2425613.0716782-.482254.0731659-.708046.0005035-.0720062-.0131454-.1358337-.0225525-.2013016-.0065155-.0459595.0110703-.0960388.0527954-.1388702C98.0458908 69.5114136 98.0642929 69.4971237 98.0826111 69.4865494zM99.2905731 72.7733307c.0433121.0173721.0399323.0739288-.0131149.1273651-.056572.0562973-.1167068.1081238-.1768799.1469345-.1245956.0809097-.2506409.1479797-.375946.2268448-.2229996.140976-.4459991.2827606-.6682739.4290237-.189003.1245956-.3772812.2545013-.5648499.3864212-.1896896.1331482-.3786392.2772827-.5683365.4071579-.0580444.0400391-.0749664.0742569-.0854111.1405945-.012558.0757141-.034317.155899-.0596237.2349014-.0166016.0523453-.0377502.0860214-.0605774.0991974-.020668.0119324-.0427094.0070801-.064003-.0158615-.0241928-.0259781-.0441437-.0592651-.0591354-.0962372-.0314178-.073143-.0607071-.1483231-.0857544-.2275772-.0071564-.0219498-.003006-.0577545.0040054-.088707.0252075-.1123276.0638809-.2300186.0791779-.3390808.022934-.1640091.0359573-.3255463.041893-.4829865.0059128-.1639557-.0001984-.3209839-.0027771-.4800262-.0008011-.0321274-.0072708-.060997-.0123367-.0979996-.0098724.0195465-.0162201.0313644-.0232849.043602-.1192627.2090073-.2370987.4196472-.3592072.6270752-.0437546.0741425-.0995941.140625-.1497498.2103195-.0168762.0236511-.03508.0408401-.054184.0518646-.0088882.0051346-.0179749.0089417-.0271988.0114136-.0233841.0061646-.0276794-.0068283-.0121613-.0377808.1925659-.3703308.351059-.7486954.5010452-1.1278458.0866089-.2195206.1604538-.4397964.2179871-.6580276.0259628-.0989227.0278397-.1880112.029007-.2758789.0012894-.0455704.007637-.0581894.0458679-.0827179l.011322-.0065384c.1098175-.0405807.2182312-.0738449.3069763-.039505.068161.0266571.0677414.130394.0049286.2391968-.0444565.0761795-.0846558.154808-.1255722.2330322-.0169296.0325928-.0310135.0668106-.0500488.1087646.2944489-.2058487.5810699-.4194183.8676529-.6468201-.1099472-.0065994-.1591492-.10289-.2182388-.1836624-.0427322-.0600891-.0797958-.1275101-.118988-.1929092-.0170975-.0275955-.0065384-.0565338.0309753-.0806274.0081177-.0052795.0165024-.010582.0248718-.0154114.0149918-.0086594.0299225-.0157547.0431137-.0181274.0942764-.0177612.1892548-.0375595.2807159-.0455551.0914688-.0087891.1306534.0565872.1309738.1680603.0000839.030899-.0012436.0626373-.0046921.0947876-.0083008.0764999-.0230789.1151886-.0746231.1963043.0283051-.022049.0509491-.0392151.0728836-.0567627.022644-.0179596.0452957-.0351028.0672302-.0534668.1768875-.1461411.3544769-.2918701.5313644-.4388046.0167007-.0140381.0332108-.0252533.0495987-.0347137.0384674-.0222092.0762329-.0346909.1139832-.0507813.0828781-.0356216.1629486-.0606461.2374191-.0580215.0227051.0007553.0517654-.0054321.0511627.0332031.0000992.0374298-.0231934.0753326-.0500641.1014328-.0579987.0563278-.1174164.1109848-.1775665.1587601-.1365662.1090012-.2745667.2139359-.4125671.3188782-.1096802.0828705-.2193832.1641312-.3290787.2470322-.009201.0069427-.024025.0277328-.0240021.0366745-.0081787.1196289-.0142212.2388458-.0216751.3621216.0919952-.073494.1790237-.1449203.2660599-.213913.0700531-.0559158.1400909-.1167374.2108841-.1616821.0083466-.0053864.0167389-.010498.0251617-.015358.0515671-.0297775.1042862-.0502243.1554489-.0685501.0531387-.0184555.1063004-.0287628.1566391-.0333862.0475006-.0046082.0483398.040535.0016785.0911102-.0452576.0489426-.0947723.0938416-.1436005.1309891-.2080536.1592484-.416832.3148193-.6248932.4716187-.0509491.0383759-.0516586.0395966-.0543213.1014404-.0039749.0968246-.0065384.1936493-.0105057.2970123.0537872-.0400314.1040344-.0772018.1542816-.1159821.1103897-.0857239.2200623-.1775818.3311844-.2555771.0121078-.0084076.0243301-.0160828.0366211-.0231781.0516052-.0298004.1043854-.0492172.1553116-.0680771.0503006-.0192642.0985107-.0251083.1460037-.0321426.0212708-.0041428.0446701-.0037918.0440598.0283508-.000618.0337601-.0253601.0619049-.047287.0810852-.061554.0526505-.1238174.1048889-.1860962.1522446-.1415329.106987-.2837906.211113-.4260406.3168945-.0615692.0453262-.1238556.0902328-.1861343.1368027-.007782.0061035-.0212021.0252609-.0211868.0325928-.0032043.1175766-.0042953.2339325-.0053864.3502731l.0035706.0093384c.0920105-.0669556.184021-.1331253.2767334-.2005081.1663208-.1212997.3333435-.2429733.4996643-.3642654.0261841-.0191879.0530853-.0396194.0785522-.0616455.0233078-.0200882.0462952-.036499.0691147-.049675.0332718-.0192032.0662079-.0315933.0994263-.038681.0807953-.0164948.1594849-.0285187.2318573-.0173187C99.2579269 72.765274 99.2749557 72.7676697 99.2905731 72.7733307zM96.7687912 72.8267822c.033432.0344849.0682678.0665207.0995789.1030426.0291824.0353317.0611954.069809.0309677.1646805.2611618-.1866379.5145493-.3671799.7700577-.5497284-.0053177-.1248627-.0099106-.2428207-.015213-.3636475-.0066147.0038147-.0113373.0061874-.0154266.0085526-.0020447.0011826-.0039291.0023575-.0058212.0037155-.1295166.0935211-.2597427.1890869-.3899765.2813873-.0661774.0467606-.1323547.0927124-.1983795.1308289-.0660248.0381241-.131897.0684128-.1974564.083847-.0011368.0003052-.0023956.0008774-.0037308.0016479-.0078049.0045013-.018219.0161743-.0224304.0248718C96.8019104 72.752243 96.7857056 72.7901382 96.7687912 72.8267822M97.6733398 73.437294c.0013275-.0317383.0033646-.0646973.0053864-.1017227-.0396423.0269775-.0750351.0514755-.1104202.0759735-.161377.1119232-.3227539.2271042-.4848557.3353577-.0291595.0194397-.0584488.0371246-.087883.0541229-.0441742.0254974-.0886993.0494614-.1337357.0754623.0003738.1309891.0007629.2693024.0011597.4092255l.0063782-.002861c.2555237-.177681.5117493-.3565598.7672653-.5342407.0212402-.0147095.0233231-.0297775.0239716-.0488968C97.6646194 73.6126633 97.6693344 73.5243683 97.6733398 73.437294M96.8577652 73.691391c.2781601-.1964493.5478287-.3863602.8174973-.577095-.000351-.1228638-.0006714-.2383804-.0010071-.3547363-.2301025.1680832-.4580765.3410263-.6941147.4773026-.0369415.0213318-.0740585.0417633-.1114349.0611343C96.8648224 73.4273758 96.8616333 73.5555038 96.8577652 73.691391" class="colorffffff svgShape"/><path fill="#fff" d="M96.8473358 70.4824982c.1188736-.0661774.2301407-.0937424.3386078-.1066513.0177307-.0020981.0340576.0039673.049675.008812.0198746.0056381.0298538.0243301.0292282.0540237-.0099792.2331238.0324249.4294891.0606689.6364746.015213.1134415.0318451.2260895.0442276.3411636.0058365.0585785-.0166626.1261673-.0547791.1905518-.0161743.0268707-.032692.0453873-.0487442.0546494-.0182648.0105438-.0359268.00914-.0518188-.0055618-.0256042-.0243225-.0469666-.0559998-.0619659-.0929718-.0264206-.063797-.0464783-.1345215-.0693665-.2019958-.0042877-.0121765-.009285-.0231552-.0157166-.0390091-.0983276.0877457-.1952438.173851-.2907333.2624054-.0721588.0661087-.1428833.1346436-.2128906.2060318-.0269089.0270615-.053627.047966-.0803833.0634155-.0224609.0129623-.0449448.0220718-.0675812.0277176-.0949707.0238571-.1920471.0530014-.2694397.0210876-.0198822-.0080872-.0376511-.0222549-.0504684-.0409393-.0170822-.0227432-.0100479-.0422821.0224991-.0675964.0686417-.0526733.1380081-.100853.2059479-.1539383.1677017-.1326828.3354034-.268631.5031052-.4004898.0566177-.0440979.1139603-.0812683.1741104-.1241608-.0556946-.134079-.0972672-.2885437-.1869125-.3916168-.0163727-.0190887-.0306168-.0410233-.0413284-.0657883C96.7470551 70.6011887 96.7809525 70.5208435 96.8473358 70.4824982zM95.5303955 73.6995239c.0168686-.0097427.0339432-.0180511.0514603-.0252914.0906754-.0360565.1827545-.0769958.2657394-.0743713.0184479.0007553.03759.0002899.0546188.0043182.0305176.0068359.0334473.0385513.0030746.0821686-.0247192.0354462-.0544052.0721512-.0848236.0994873-.0884247.0795898-.1782837.1542816-.2674255.2310181-.1818237.1554871-.3629379.3122025-.5447693.4652634-.0544815.0461349-.110405.0833054-.165596.1249466-.0991364.0539856-.1905594.0782471-.2770844.0752411-.0184479-.0007629-.0369034-.0064163-.0504074-.0173645-.0220337-.0166168-.0171738-.0536423.0132294-.0866699.0353546-.0375443.0728378-.0730286.1110535-.1016083.2703629-.1976547.5299683-.4347458.7845459-.693367C95.4600143 73.7470093 95.4947433 73.720108 95.5303955 73.6995239zM95.5222321 74.526886c.0291214-.0168152.0583725-.030365.0881653-.0419769.0835953-.0319672.1671753-.0671844.2444839-.0678024.0148926.0003586.0304947-.0004959.0446854.0027161.0383148.0080338.039856.0495224-.0004272.0996628-.0332184.0411911-.0699844.0795364-.1074829.1117706-.1443253.1232529-.2893677.2469406-.4351196.366127-.1408081.1147003-.2830505.2253571-.4245682.3371964-.0268936.0204391-.054512.036377-.0821152.0547485-.0029526.0017548-.0059128.0035019-.0088501.0052032-.0943451.0544662-.1821289.0797958-.264679.0744858-.0191498-.0011673-.0376053-.0051727-.0532303-.0132599-.0276947-.0141602-.0256882-.0552673.0089569-.0948105.0332184-.0379257.0699997-.0746536.1068039-.1007919.2625885-.1850128.5165634-.4082413.7669449-.6457138C95.4449692 74.5774155 95.4834824 74.5492554 95.5222321 74.526886zM94.8831406 71.996933c.0407257-.0208817.0761414-.0364456.1094513-.0434494.149559-.0293121.2892761-.0284729.4149094.0098114.083046.0245819.1307678.094017.1565704.1923904.0272369.0991821.0353546.2118378.0243607.3371582-.0089493.094017-.0321808.1563034-.0978394.2610397.1224213-.0975571.2434311-.1894455.3630066-.2902451.0427551-.0362244.0846176-.0659637.1257172-.0896912.0894699-.0516586.1753235-.074852.2589111-.0745239.0340424.0007324.0631561.0140686.093689.0249634.0099411.0040359.017067.0162354.0227661.0275955.0235367.0467148.0094833.091507-.0464172.1351929-.0686417.0534897-.1394424.0984268-.208786.1515121-.2328186.1800461-.4677887.3531952-.6977386.5446243-.3028183.2530746-.6020584.5203629-.9027252.7819824-.0785294.0681534-.1563263.1448593-.23629.2064972-.0134506.0103989-.0273361.0195618-.0413895.0276794-.0340195.0196381-.0690765.0330963-.1016693.0426941-.1084213.0308075-.2175598.0604095-.3098297.0346375-.0312271-.0088501-.0617676-.0238342-.0845261-.0473633-.0334244-.0328522-.0221939-.073555.0329971-.1176453.0721741-.0587997.146492-.1106644.2193832-.1666107.2561722-.1968002.5130615-.3931961.7692261-.5940552.2023773-.1584091.404747-.3216934.6064148-.4829559.0120316-.0093765.0240555-.0203857.0353775-.0293808-.0559387.0322952-.0921555.0149002-.1248474-.0110321-.0874405-.0717697-.1522598-.1720657-.2107239-.2792892-.0641556-.1177902-.1240845-.2413025-.1854172-.3623505-.0121155-.0223465-.0270691-.0422287-.0363617-.0678329C94.814888 72.0737839 94.8356781 72.0243378 94.8831406 71.996933z" class="colorffffff svgShape"/></g></svg>