<svg xmlns="http://www.w3.org/2000/svg" enable-background="new 0 0 68 68" viewBox="0 0 68 68"><path fill="#dff4e3" d="M60.7525,63.743l-11.1802-2.5707l-4.6623-31.223l6.2567,1.0192l3.1687,0.5148c1.2528,0.2035,2.279,1.1055,2.6417,2.3218l3.4031,11.4125l4.2864,14.3513C65.3929,62.0007,63.2258,64.3117,60.7525,63.743z" class="colordfe9f4 svgShape"/><polygon fill="#dff4e3" points="49.572 61.172 37.695 64.109 34.001 65.017 34.001 31.816 44.91 29.949" class="colordfe9f4 svgShape"/><polygon fill="#dff4e3" points="34.001 31.816 34.001 65.017 18.43 61.172 21.367 41.484 23.092 29.949 28.612 30.898" class="colordfe9f4 svgShape"/><path fill="#dff4e3" d="M23.0922,29.9493L18.43,61.1723l-3.7742,0.8679l-7.4063,1.7029c-2.4732,0.5687-4.6403-1.7422-3.9142-4.1739l3.2069-10.7388l4.4829-15.0261c0.3627-1.2159,1.3885-2.1175,2.6409-2.3213L23.0922,29.9493z" class="colordfe9f4 svgShape"/><path fill="#00cc23" d="M14.6558,62.0402l-7.4063,1.7029c-2.4732,0.5687-4.6403-1.7422-3.9142-4.1739l3.2069-10.7388h3.7688c2.0923,0,3.8147,1.6453,3.9105,3.7354L14.6558,62.0402z" class="color00cc99 svgShape"/><path fill="#53d86a" d="M14.6558,62.0402l-7.4071,1.7055c-2.4724,0.5651-4.6421-1.7458-3.9155-4.1779l3.2091-10.7373h2.099l-2.311,7.7402c-0.7266,2.432,1.4431,4.743,3.9155,4.1779l4.3091-0.989L14.6558,62.0402z" class="color02c18b svgShape"/><path fill="#ffa342" d="M60.3802,45.2177l-5.0582,0.8309c-1.0445,0.1716-2.0109-0.5909-2.0869-1.6467l-0.399-5.5382c-0.0289-0.4012-0.1914-0.7812-0.4615-1.0793l-2.0269-2.2365c-0.4725-0.5214-0.5979-1.2703-0.3209-1.9171l1.1399-2.6623l3.1687,0.5148c1.2528,0.2035,2.279,1.1055,2.6417,2.3218L60.3802,45.2177z" class="colorffd542 svgShape"/><path fill="#fe9526" d="M60.3802,45.2177l-2.2807,0.3734l-2.9669-9.9401c-0.3633-1.221-1.3926-2.1192-2.644-2.321l-2.1797-0.3532l0.8577-2.0082l3.1687,0.5147c1.2513,0.2018,2.2807,1.11,2.644,2.321L60.3802,45.2177z" class="colorf2c538 svgShape"/><path fill="#2d89f6" d="M42.6599,58.7166l-4.9652,5.3923l-3.6935,0.9083V45.2984l3.105,0.2329c0.9694,0.0727,1.7064,0.9013,1.6655,1.8726l-0.2509,5.9567c-0.0348,0.8252,0.4959,1.5683,1.2877,1.8032l2.0385,0.6049C43.1251,56.148,43.563,57.7359,42.6599,58.7166z" class="color2dcef6 svgShape"/><polygon fill="#167ffc" points="40.389 61.182 37.695 64.109 34.001 65.017 34.001 45.298 36.998 45.52 36.998 62.02" class="color1ec5e0 svgShape"/><path fill="#f3a24c" d="M27.3918,3.0172c-7.8814,0-14.2492,6.3778-14.2492,14.2492c0,5.7825,7.7099,17.1555,11.7868,22.7563c1.2211,1.6651,3.7036,1.6651,4.9145,0C33.921,34.4218,41.641,23.0488,41.641,17.2663C41.641,9.395,35.253,3.0172,27.3918,3.0172z M27.3918,22.9968c-3.1108,0-5.6295-2.5108-5.6295-5.6295c0-3.103,2.5187-5.6295,5.6295-5.6295c3.1029,0,5.6295,2.5265,5.6295,5.6295C33.0213,20.486,30.4947,22.9968,27.3918,22.9968z" class="colorf34c6e svgShape"/><path fill="#e29340" d="M41.2777,14.0674c-1.5642,6.1356-7.8814,15.3895-11.4337,20.2737c-1.211,1.6651-3.6935,1.6651-4.9145,0c-3.5522-4.8842-9.8594-14.1381-11.4236-20.2737c-0.2422,1.0294-0.3633,2.099-0.3633,3.199c0,5.7825,7.7099,17.1555,11.7868,22.7563c1.2211,1.6651,3.7036,1.6651,4.9145,0C33.921,34.4218,41.641,23.0488,41.641,17.2663C41.641,16.1664,41.5199,15.0967,41.2777,14.0674z" class="colore24067 svgShape"/><path fill="#595bd4" d="M65.6223,59.2842l-7.6899-25.77c-0.47-1.57-1.82-2.76-3.44-3.02l-9.42-1.53c-0.2643-0.0529-7.1983,1.1782-7.5,1.23c2.79-4.76,5.07-9.63,5.07-12.93c0-2.42-0.56-4.74-1.65-6.89c-0.25-0.49-0.85-0.69-1.34-0.44s-0.69,0.85-0.44,1.34c0.95,1.87,1.43,3.88,1.43,5.99c0,3.96-4.23,12.04-11.61,22.17c-0.7972,1.1119-2.4588,1.1297-3.29,0c-3.4901-4.79-11.6-16.54-11.6-22.17c0-7.3,5.94-13.25,13.25-13.25c3.59,0,6.95,1.42,9.46,3.98c0.39,0.39,1.02,0.4,1.42,0.02c0.39-0.39,0.4-1.02,0.01-1.42c-2.89-2.95-6.76-4.58-10.89-4.58c-8.41,0-15.25,6.84-15.25,15.25c0,3.29,2.26,8.15,5.04,12.88c-0.05-0.07-0.1-0.15-0.14-0.22l-3.54,0.57c-1.62,0.27-2.97,1.45-3.43,3.02l-7.7,25.77c-0.9491,3.2143,1.951,6.1929,5.1,5.43l10.95-2.51l15.34,3.78c0.3694,0.0924,15.4503-3.6889,15.82-3.78c0,0,11.61,2.63,11.93,2.63C64.3061,64.8342,66.4767,62.1132,65.6223,59.2842z M18.1623,56.2242l-0.62,4.13l-1.94,0.4399l-0.14-3.1c-0.03-0.55-0.5-0.99-1.05-0.95c-0.55,0.02-0.98,0.49-0.95,1.04l0.16,3.47l-6.6,1.51c-1.7151,0.4023-3.2404-1.2086-2.73-2.91l2.99-10.02h3.03c1.56,0,2.84,1.22,2.91,2.78l0.08,1.77c0.03,0.55,0.5,0.99,1.05,0.95c0.55-0.02,0.97-0.49,0.95-1.04l-0.08-1.77c-0.12-2.63-2.28-4.69-4.91-4.69h-2.43l4.1-13.74c0.25-0.85,0.98-1.48,1.84-1.62l4.33-0.71c-0.07-0.11-0.14-0.23-0.2-0.34c1.04,1.71,2.13,3.38,3.18,4.9301L18.1623,56.2242z M33.0023,63.7442l-13.4499-3.32l3.24-21.67c0.46,0.65,0.91,1.29,1.33,1.86c1.6258,2.2171,4.9096,2.2097,6.53,0c0.72-0.99,1.52-2.11,2.35-3.32V63.7442z M40.6823,62.3442l2.71-2.95c1.4244-1.5539,0.6866-4.0148-1.26-4.58l-2.04-0.61c-0.35-0.1-0.59-0.43-0.57-0.8l0.1-2.43c0.02-0.55-0.41-1.02-0.96-1.04c-0.54-0.03-1.01,0.4-1.04,0.96l-0.1,2.43c-0.05,1.28,0.77,2.43,2,2.8l2.04,0.6c0.573,0.1809,0.7645,0.8755,0.36,1.31l-4.76,5.18c-4.3809,1.0536,2.2138-0.5254-2.16,0.53v-17.37l2.03,0.15c0.43,0.04,0.76,0.4,0.74,0.84c-0.02,0.55,0.41,1.02,0.96,1.04c0.52,0.04,1.02-0.41,1.04-0.96c0.06-1.52-1.08-2.8-2.59-2.91l-2.1801-0.16v-10.05c0.39-0.61,0.79-1.23,1.19-1.86l7.88-1.36l4.38,29.3199L40.6823,62.3442z M60.9823,62.7642l-10.52-2.41c-3.3036-22.0838-2.3415-15.6383-4.36-29.2l3.64,0.6l-0.63,1.48c-0.43,1.01-0.2401,2.1801,0.49,2.9901l2.03,2.23c0.12,0.13,0.19,0.3,0.21,0.48l0.07,1.01c0.04,0.55,0.53,0.97,1.07,0.92c0.55-0.04,0.96-0.52,0.92-1.07l-0.07-1c-0.04-0.62-0.3-1.22-0.72-1.68l-2.02-2.24c-0.21-0.23-0.27-0.56-0.15-0.85l0.84-1.94l2.39,0.39c0.87,0.14,1.6,0.77,1.85,1.62c2.8652,9.5808,0.2185,0.7352,3.07,10.32l-3.93,0.65c-0.5065,0.0661-0.8882-0.2692-0.93-0.73l-0.12-1.73c-0.04-0.55-0.53-0.96-1.07-0.92c-0.55,0.03-0.97,0.51-0.93,1.06l0.13,1.73c0.1089,1.699,1.7345,2.8607,3.24,2.56l4.2-0.69l4.03,13.51C64.2147,61.6019,62.667,63.1594,60.9823,62.7642z" class="color000033 svgShape"/><path fill="#595bd4" d="M20.7626,17.3675c0,3.6553,2.9736,6.6289,6.6289,6.6289s6.6299-2.9736,6.6299-6.6289s-2.9746-6.6299-6.6299-6.6299S20.7626,13.7122,20.7626,17.3675z M32.0214,17.3675c0,2.5527-2.0771,4.6289-4.6299,4.6289s-4.6289-2.0762-4.6289-4.6289s2.0762-4.6299,4.6289-4.6299S32.0214,14.8148,32.0214,17.3675z" class="color000033 svgShape"/></svg>