<svg xmlns="http://www.w3.org/2000/svg" viewBox="0 0 64 64"><path fill="#0b7" d="M52,31.09v.01h-.01a5.861,5.861,0,0,1-.93,3.12,5.861,5.861,0,0,0,.93-3.12H52V31a6,6,0,0,0-12,0v.1a4.712,4.712,0,0,1,1-.1,4.973,4.973,0,0,1,2.96.97A4.973,4.973,0,0,0,41,31a4.712,4.712,0,0,0-1,.1A5,5,0,0,0,36,36a4.8,4.8,0,0,0,.21,1.43A3.876,3.876,0,0,1,38,37a3.933,3.933,0,0,1,1.93.5A3.933,3.933,0,0,0,38,37a3.876,3.876,0,0,0-1.79.43A3.976,3.976,0,0,0,34,41a4,4,0,0,0,4,4,.57.57,0,0,0,.13-.01A.57.57,0,0,1,38,45a4.005,4.005,0,0,1-3.52-2.1A3.958,3.958,0,0,0,33,46a4,4,0,0,0,4,4h8V45h4v5h7a4.712,4.712,0,0,0,1-.1A5,5,0,0,0,59,41a4.6,4.6,0,0,0-1.06-.6,3.819,3.819,0,0,0-.94-.3,4.712,4.712,0,0,0-1-.1A4.993,4.993,0,0,0,52,42.006,4.993,4.993,0,0,1,56,40a4.712,4.712,0,0,1,1,.1,3.819,3.819,0,0,1,.94.3A6.007,6.007,0,0,0,53,31,5.47,5.47,0,0,0,52,31.09Z"/><polygon fill="#ff5023" points="17 12.31 13 14.79 9 17.28 3 21 3 27 7 24.52 12.67 21 32 9 51.33 21 57 24.52 61 27 61 21 32 3 17 12.31"/><path fill="#c49a6c" d="M49,50V61h8V49.9a4.712,4.712,0,0,1-1,.1Z"/><path fill="#c49a6c" d="M32,9,12.67,21,7,24.52V61h6V33H27V61H45V50H37a4,4,0,0,1-4-4,3.958,3.958,0,0,1,1.48-3.1A4.026,4.026,0,0,1,34,41a3.976,3.976,0,0,1,2.21-3.57A4.8,4.8,0,0,1,36,36a5,5,0,0,1,4-4.9V31a6,6,0,0,1,12,0v.09A5.47,5.47,0,0,1,53,31a5.931,5.931,0,0,1,4,1.54V24.52L51.33,21Zm0,17a5,5,0,1,1,5-5A5,5,0,0,1,32,26Z"/><polygon fill="#8b5e3c" points="49 45 45 45 45 50 45 61 49 61 49 50 49 45"/><rect width="14" height="28" x="13" y="33" fill="#83d8f4"/><polygon fill="#acabb1" points="17 8 13 8 13 14.79 17 12.31 17 8"/><path fill="#46f8ff" d="M32 16a5 5 0 00-5 5h5zM32 26a5 5 0 005-5H32zM27 21a5 5 0 005 5V21zM32 16v5h5A5 5 0 0032 16z"/><path d="M60.473,27.85A1,1,0,0,0,62,27V21a1,1,0,0,0-.473-.85l-29-18a1,1,0,0,0-1.054,0L18,10.513V8a1,1,0,0,0-1-1H13a1,1,0,0,0-1,1v6.237L2.473,20.15A1,1,0,0,0,2,21v6a1,1,0,0,0,1.527.85L6,26.315V61a1,1,0,0,0,1,1H57a1,1,0,0,0,1-1V50.643A5.989,5.989,0,0,0,59.6,40.2c-.094-.07-.19-.124-.285-.187A6.954,6.954,0,0,0,58,32.123V26.315ZM14,9h2v2.753l-2,1.241ZM4,21.557,32,4.177,60,21.556V25.2L32.527,8.15a1,1,0,0,0-1.054,0L4,25.2ZM14,60V34H26V60Zm32,0V46h2V60Zm10,0H50V51h6Zm4-15a4.01,4.01,0,0,1-3.213,3.923A3.744,3.744,0,0,1,56,49H50V45a1,1,0,0,0-1-1H45a1,1,0,0,0-1,1v4H37a3,3,0,0,1-3-3,2.957,2.957,0,0,1,.426-1.509A5,5,0,0,0,38,46a1.513,1.513,0,0,0,.367-.038A1,1,0,0,0,37.99,44,3,3,0,0,1,35,41a3.094,3.094,0,0,1,.029-.422,2.972,2.972,0,0,1,1.642-2.26,2.758,2.758,0,0,1,.669-.242h.009a3,3,0,0,1,2.09.3,1,1,0,1,0,.981-1.744,4.991,4.991,0,0,0-2.35-.614c-.024,0-.045-.014-.07-.014-.094,0-.184.023-.277.028-.17.009-.338.026-.5.051-.07.011-.142.007-.211.021,0-.034-.007-.066-.007-.1a4.01,4.01,0,0,1,3.215-3.923A3.677,3.677,0,0,1,41,32a3.964,3.964,0,0,1,2.367.776,1,1,0,0,0,1.186-1.611,5.945,5.945,0,0,0-3.44-1.156l-.012,0v0c.006-.028.018-.054.024-.081a5.048,5.048,0,0,1,.25-.8c.04-.1.094-.186.139-.28a5.067,5.067,0,0,1,.287-.528c.064-.1.137-.192.208-.286a5.014,5.014,0,0,1,.353-.428c.084-.089.172-.173.262-.256a5,5,0,0,1,.421-.347c.1-.073.2-.144.3-.21a5.2,5.2,0,0,1,.493-.268c.106-.051.21-.106.321-.15a5.118,5.118,0,0,1,.594-.185c.1-.025.194-.06.3-.08A4.871,4.871,0,0,1,47,26.1c.106.021.2.066.3.094a4.915,4.915,0,0,1,.631.2c.11.047.206.115.311.168a5.139,5.139,0,0,1,.537.292c.1.07.192.161.291.238a5.156,5.156,0,0,1,.448.371c.095.094.169.206.256.307a5.031,5.031,0,0,1,.355.43c.079.116.134.247.2.37a4.65,4.65,0,0,1,.259.476c.057.133.088.279.133.419a4.729,4.729,0,0,1,.16.515c.031.145.032.3.049.449a4.653,4.653,0,0,1,.056.556.981.981,0,0,0-.008.109,4.83,4.83,0,0,1-.774,2.591A1,1,0,0,0,51.9,34.758a6.912,6.912,0,0,0,1.014-2.751c.029,0,.054-.007.083-.007a5,5,0,0,1,4.491,7.193c-.092-.023-.185-.053-.276-.069A5.682,5.682,0,0,0,56,39a5.957,5.957,0,0,0-4.806,2.406,1,1,0,1,0,1.6,1.2A3.97,3.97,0,0,1,56,41a3.8,3.8,0,0,1,.821.084,3.041,3.041,0,0,1,.752.246,3.591,3.591,0,0,1,.825.469A4.027,4.027,0,0,1,60,45ZM56,25.076v5.6c-.043-.021-.089-.035-.132-.055-.163-.073-.328-.142-.5-.2-.086-.032-.173-.059-.261-.087-.137-.044-.276-.083-.416-.118-.106-.027-.212-.053-.319-.075-.124-.025-.25-.043-.375-.061s-.23-.037-.346-.048C53.437,30.011,53.219,30,53,30l-.026,0c-.015,0-.03,0-.045,0-.011-.076-.03-.15-.043-.226-.017-.1-.034-.191-.055-.285-.028-.127-.062-.251-.1-.374-.025-.089-.048-.179-.076-.266-.042-.129-.091-.255-.14-.381-.031-.077-.057-.156-.09-.232-.063-.145-.133-.285-.205-.424-.027-.054-.051-.109-.079-.161-.1-.19-.217-.375-.337-.553-.024-.037-.053-.07-.078-.106-.1-.141-.2-.279-.308-.412-.048-.059-.1-.114-.151-.171-.091-.105-.183-.209-.28-.309-.06-.06-.123-.117-.185-.176-.094-.089-.189-.178-.289-.262-.068-.058-.138-.112-.208-.167-.1-.078-.2-.154-.3-.227-.076-.053-.152-.1-.23-.153-.1-.067-.21-.132-.318-.194-.081-.046-.163-.09-.246-.133-.111-.058-.224-.112-.338-.164-.085-.038-.169-.076-.255-.111-.119-.048-.24-.091-.362-.132-.086-.03-.171-.061-.259-.087-.129-.038-.26-.069-.391-.1-.085-.02-.169-.042-.255-.059-.147-.029-.3-.049-.446-.069-.074-.009-.146-.023-.221-.03C46.46,24.013,46.231,24,46,24s-.466.013-.7.035c-.076.008-.15.023-.225.033-.151.02-.3.039-.45.069-.088.017-.173.042-.259.062-.133.032-.265.063-.4.1-.089.027-.176.06-.264.091-.122.042-.244.084-.363.133-.089.037-.175.078-.262.118-.113.052-.226.1-.336.162-.087.046-.17.095-.254.144-.106.062-.211.124-.313.19-.082.054-.161.11-.241.167-.1.071-.2.142-.289.217-.077.061-.152.124-.226.188q-.136.119-.267.243c-.071.068-.14.137-.208.208-.083.087-.163.175-.242.266-.064.075-.128.15-.189.227-.075.094-.146.19-.215.288-.058.08-.115.161-.169.243-.066.1-.127.2-.187.309-.05.085-.1.171-.147.259-.056.107-.107.217-.158.327-.042.09-.085.18-.123.272-.046.113-.086.23-.126.346-.033.094-.069.187-.1.283-.037.12-.065.244-.095.367-.023.1-.05.189-.069.286-.026.131-.043.265-.061.4-.013.093-.031.184-.04.278l0,.018c-.042.015-.08.038-.122.053-.129.049-.251.108-.375.165-.176.079-.349.161-.515.256-.12.07-.234.146-.349.224-.156.1-.307.213-.452.331-.107.088-.209.179-.31.274-.136.128-.264.261-.387.4-.091.1-.18.2-.264.314-.115.15-.219.307-.32.467-.071.113-.144.225-.208.343a5.784,5.784,0,0,0-.248.536c-.05.118-.1.232-.146.353a5.922,5.922,0,0,0-.171.634c-.024.107-.058.21-.077.318a5.808,5.808,0,0,0-.016,1.919c0,.01,0,.021,0,.031a4.913,4.913,0,0,0-.433.351c-.014.012-.028.023-.041.036a4.877,4.877,0,0,0-.428.447c-.046.055-.086.113-.129.169-.087.113-.172.227-.249.346-.044.069-.084.14-.125.211-.066.115-.128.231-.185.351q-.054.114-.1.231c-.051.123-.095.249-.136.377-.025.078-.051.155-.072.234-.038.142-.066.286-.091.431-.012.069-.028.137-.037.207a4.589,4.589,0,0,0,.018,1.412c.011.072.027.143.041.214a4.95,4.95,0,0,0,.146.563c.014.042.019.086.033.128-.019.021-.032.046-.051.067a4.992,4.992,0,0,0-.492.654c-.007.011-.012.022-.018.033a4.852,4.852,0,0,0-.349.7c-.019.046-.039.091-.056.137a4.857,4.857,0,0,0-.215.761c-.011.052-.018.1-.027.156A5.085,5.085,0,0,0,32,46a5.006,5.006,0,0,0,5,5h7v9H28V33a1,1,0,0,0-1-1H13a1,1,0,0,0-1,1V60H8V25.076l24-14.9Z"/><path d="M32,27a6,6,0,1,0-6-6A6.006,6.006,0,0,0,32,27Zm-3.858-5H31v2.858A4,4,0,0,1,28.142,22ZM33,24.858V22h2.858A4,4,0,0,1,33,24.858ZM35.858,20H33V17.142A4,4,0,0,1,35.858,20ZM31,17.142V20H28.142A4,4,0,0,1,31,17.142Z"/></svg>